<svg width="351" height="124" viewBox="0 0 351 124" fill="none" xmlns="http://www.w3.org/2000/svg">
<path d="M108.842 40V14.872H114.314V35.14H123.89V40H108.842ZM141.753 40C140.793 40 139.989 39.7 139.341 39.1C138.717 38.5 138.321 37.696 138.153 36.688H137.937C137.649 37.912 137.013 38.848 136.029 39.496C135.045 40.12 133.833 40.432 132.393 40.432C130.497 40.432 129.045 39.928 128.037 38.92C127.029 37.912 126.525 36.58 126.525 34.924C126.525 32.932 127.245 31.456 128.685 30.496C130.149 29.512 132.129 29.02 134.625 29.02H137.613V27.832C137.613 26.92 137.373 26.2 136.893 25.672C136.413 25.12 135.609 24.844 134.481 24.844C133.425 24.844 132.585 25.072 131.961 25.528C131.337 25.984 130.821 26.5 130.413 27.076L127.245 24.268C128.013 23.14 128.973 22.264 130.125 21.64C131.301 20.992 132.885 20.668 134.877 20.668C137.565 20.668 139.581 21.256 140.925 22.432C142.269 23.608 142.941 25.324 142.941 27.58V35.86H144.705V40H141.753ZM134.373 36.724C135.261 36.724 136.017 36.532 136.641 36.148C137.289 35.764 137.613 35.14 137.613 34.276V32.044H135.021C132.933 32.044 131.889 32.752 131.889 34.168V34.708C131.889 35.404 132.105 35.92 132.537 36.256C132.969 36.568 133.581 36.724 134.373 36.724ZM148.281 40V21.1H153.609V25.204H153.789C153.885 24.676 154.053 24.172 154.293 23.692C154.533 23.188 154.845 22.744 155.229 22.36C155.637 21.976 156.117 21.676 156.669 21.46C157.221 21.22 157.869 21.1 158.613 21.1H159.549V26.068H158.217C156.657 26.068 155.493 26.272 154.725 26.68C153.981 27.088 153.609 27.844 153.609 28.948V40H148.281ZM176.311 40C175.351 40 174.547 39.7 173.899 39.1C173.275 38.5 172.879 37.696 172.711 36.688H172.495C172.207 37.912 171.571 38.848 170.587 39.496C169.603 40.12 168.391 40.432 166.951 40.432C165.055 40.432 163.603 39.928 162.595 38.92C161.587 37.912 161.083 36.58 161.083 34.924C161.083 32.932 161.803 31.456 163.243 30.496C164.707 29.512 166.687 29.02 169.183 29.02H172.171V27.832C172.171 26.92 171.931 26.2 171.451 25.672C170.971 25.12 170.167 24.844 169.039 24.844C167.983 24.844 167.143 25.072 166.519 25.528C165.895 25.984 165.379 26.5 164.971 27.076L161.803 24.268C162.571 23.14 163.531 22.264 164.683 21.64C165.859 20.992 167.443 20.668 169.435 20.668C172.123 20.668 174.139 21.256 175.483 22.432C176.827 23.608 177.499 25.324 177.499 27.58V35.86H179.263V40H176.311ZM168.931 36.724C169.819 36.724 170.575 36.532 171.199 36.148C171.847 35.764 172.171 35.14 172.171 34.276V32.044H169.579C167.491 32.044 166.447 32.752 166.447 34.168V34.708C166.447 35.404 166.663 35.92 167.095 36.256C167.527 36.568 168.139 36.724 168.931 36.724ZM200.383 29.056L197.107 33.016V40H191.635V14.872H197.107V26.824H197.323L200.887 21.964L206.539 14.872H212.731L204.271 25.204L213.487 40H207.043L200.383 29.056ZM226.871 36.832H226.691C226.523 37.312 226.295 37.768 226.007 38.2C225.743 38.632 225.395 39.016 224.963 39.352C224.531 39.688 224.015 39.952 223.415 40.144C222.839 40.336 222.167 40.432 221.399 40.432C219.455 40.432 217.979 39.796 216.971 38.524C215.987 37.228 215.495 35.38 215.495 32.98V21.1H220.823V32.512C220.823 33.664 221.027 34.552 221.435 35.176C221.843 35.8 222.539 36.112 223.523 36.112C223.931 36.112 224.339 36.052 224.747 35.932C225.155 35.812 225.515 35.644 225.827 35.428C226.139 35.188 226.391 34.9 226.583 34.564C226.775 34.228 226.871 33.832 226.871 33.376V21.1H232.199V40H226.871V36.832ZM244.788 40.432C243.372 40.432 242.112 40.204 241.008 39.748C239.904 39.268 238.98 38.608 238.236 37.768C237.492 36.904 236.928 35.86 236.544 34.636C236.16 33.412 235.968 32.044 235.968 30.532C235.968 29.02 236.16 27.664 236.544 26.464C236.928 25.24 237.492 24.196 238.236 23.332C238.98 22.468 239.904 21.808 241.008 21.352C242.112 20.896 243.372 20.668 244.788 20.668C246.708 20.668 248.304 21.1 249.576 21.964C250.872 22.828 251.796 24.04 252.348 25.6L248.028 27.472C247.86 26.752 247.512 26.14 246.984 25.636C246.456 25.132 245.724 24.88 244.788 24.88C243.708 24.88 242.892 25.24 242.34 25.96C241.788 26.656 241.512 27.604 241.512 28.804V32.332C241.512 33.532 241.788 34.48 242.34 35.176C242.892 35.872 243.708 36.22 244.788 36.22C245.748 36.22 246.504 35.968 247.056 35.464C247.632 34.936 248.052 34.252 248.316 33.412L252.456 35.212C251.832 37.012 250.86 38.332 249.54 39.172C248.244 40.012 246.66 40.432 244.788 40.432ZM255.754 13.36H261.082V24.304H261.298C261.634 23.32 262.222 22.468 263.062 21.748C263.902 21.028 265.066 20.668 266.554 20.668C268.498 20.668 269.962 21.316 270.946 22.612C271.954 23.908 272.458 25.756 272.458 28.156V40H267.13V28.588C267.13 27.364 266.938 26.464 266.554 25.888C266.17 25.288 265.486 24.988 264.502 24.988C264.07 24.988 263.65 25.048 263.242 25.168C262.834 25.264 262.462 25.432 262.126 25.672C261.814 25.912 261.562 26.212 261.37 26.572C261.178 26.908 261.082 27.304 261.082 27.76V40H255.754V13.36ZM285.083 40.432C283.643 40.432 282.359 40.204 281.231 39.748C280.103 39.268 279.143 38.608 278.351 37.768C277.583 36.904 276.995 35.86 276.587 34.636C276.203 33.412 276.011 32.044 276.011 30.532C276.011 29.044 276.203 27.7 276.587 26.5C276.971 25.276 277.535 24.232 278.279 23.368C279.047 22.504 279.983 21.844 281.087 21.388C282.191 20.908 283.451 20.668 284.867 20.668C286.427 20.668 287.759 20.932 288.863 21.46C289.991 21.988 290.903 22.696 291.599 23.584C292.319 24.472 292.835 25.504 293.147 26.68C293.483 27.832 293.651 29.044 293.651 30.316V31.9H281.519V32.188C281.519 33.436 281.855 34.432 282.527 35.176C283.199 35.896 284.255 36.256 285.695 36.256C286.799 36.256 287.699 36.04 288.395 35.608C289.091 35.152 289.739 34.612 290.339 33.988L293.003 37.3C292.163 38.284 291.059 39.052 289.691 39.604C288.347 40.156 286.811 40.432 285.083 40.432ZM284.975 24.592C283.895 24.592 283.043 24.952 282.419 25.672C281.819 26.368 281.519 27.304 281.519 28.48V28.768H288.143V28.444C288.143 27.292 287.879 26.368 287.351 25.672C286.847 24.952 286.055 24.592 284.975 24.592Z" fill="white"/>
<path d="M55.6178 93.432C54.2951 93.432 53.0364 93.048 51.8418 92.28C50.6471 91.5547 49.7511 90.424 49.1538 88.888C48.9404 88.3333 48.7911 87.736 48.7057 87.096C48.6631 86.456 48.6418 85.8373 48.6418 85.24V84.408C48.6418 84.1093 48.6631 83.832 48.7057 83.576C48.7911 83.32 48.9618 83.192 49.2178 83.192C49.3031 83.192 49.3458 83.2347 49.3458 83.32C49.3458 83.576 49.3244 83.832 49.2818 84.088C49.2818 84.344 49.2818 84.6 49.2818 84.856C49.2818 86.8613 49.7724 88.3973 50.7538 89.464C51.7778 90.488 53.0364 91 54.5298 91C56.0231 91 57.4738 90.5733 58.8818 89.72C60.2898 88.824 61.5911 87.7147 62.7858 86.392C63.4684 85.6667 64.2364 84.5787 65.0898 83.128C65.9858 81.6347 66.9031 79.9707 67.8418 78.136C68.8231 76.2587 69.8044 74.3387 70.7858 72.376C71.7671 70.3707 72.7058 68.4507 73.6018 66.616C74.4978 64.7387 75.3084 63.096 76.0338 61.688C76.7164 60.3653 77.6338 59.32 78.7858 58.552C79.9378 57.784 80.9191 57.2507 81.7298 56.952C81.4311 56.952 80.7911 56.9733 79.8098 57.016C78.8711 57.0587 77.8684 57.1013 76.8018 57.144C75.7351 57.1867 74.8818 57.2293 74.2418 57.272C72.6204 57.3573 70.9778 57.5493 69.3138 57.848C67.6498 58.1467 66.1778 58.552 64.8978 59.064C63.6178 59.576 62.7004 60.2373 62.1458 61.048C61.7618 61.6027 61.5698 62.2427 61.5698 62.968C61.5698 64.4187 62.2098 65.464 63.4897 66.104C63.5751 66.1893 63.6178 66.232 63.6178 66.232C63.6178 66.36 63.5111 66.488 63.2978 66.616C63.0844 66.7013 62.8711 66.7227 62.6578 66.68C62.3164 66.4667 61.8898 66.1253 61.3778 65.656C60.9084 65.144 60.4604 64.6107 60.0338 64.056C59.6498 63.5013 59.3938 63.032 59.2658 62.648C59.0524 62.008 58.9458 61.496 58.9458 61.112C58.9458 60.088 59.3298 59.256 60.0978 58.616C60.8658 57.9333 61.8684 57.4213 63.1058 57.08C64.3431 56.696 65.6658 56.44 67.0738 56.312C68.4818 56.1413 69.8471 56.0347 71.1698 55.992C72.4924 55.9493 73.6231 55.928 74.5618 55.928C76.7378 55.928 78.6791 55.928 80.3857 55.928C82.1351 55.8853 83.7351 55.864 85.1858 55.864C86.6791 55.864 88.1084 55.8853 89.4738 55.928C90.8818 55.9707 92.3538 56.0347 93.8898 56.12C94.9991 56.1627 95.7458 56.376 96.1298 56.76C96.5564 57.144 96.7698 57.6133 96.7698 58.168C96.7698 58.8933 96.5351 59.6827 96.0658 60.536C95.5964 61.3893 95.1698 62.1787 94.7858 62.904C94.6151 63.2453 94.3378 63.5013 93.9538 63.672C93.5698 63.8 93.4204 63.672 93.5058 63.288C93.5911 62.904 93.6764 62.4987 93.7618 62.072C93.8471 61.6027 93.8898 61.1547 93.8898 60.728C93.8898 59.96 93.7404 59.2773 93.4418 58.68C93.1431 58.04 92.6311 57.592 91.9058 57.336C91.4791 57.1653 90.9671 57.0587 90.3698 57.016C89.7724 56.9307 89.1324 56.888 88.4498 56.888C87.1698 56.888 85.8898 57.016 84.6098 57.272C83.3298 57.528 82.3271 57.9333 81.6018 58.488C80.7058 59.1707 79.7884 60.28 78.8498 61.816C77.9538 63.352 77.1004 64.9947 76.2898 66.744C75.4791 68.4933 74.7538 70.0293 74.1138 71.352C74.0711 71.4373 74.0498 71.5653 74.0498 71.736C74.0498 71.9493 74.2418 72.056 74.6258 72.056C75.2231 72.056 76.0551 72.056 77.1218 72.056C78.2311 72.056 79.3831 72.0773 80.5778 72.12C81.7724 72.12 82.7964 72.12 83.6498 72.12C84.5884 72.12 85.3351 72.184 85.8898 72.312C86.4444 72.3973 86.7218 72.6747 86.7218 73.144C86.7218 73.3147 86.6151 73.656 86.4018 74.168C86.1031 74.8507 85.7618 75.448 85.3778 75.96C85.0364 76.4293 84.7591 76.92 84.5458 77.432C84.5031 77.6027 84.3111 77.752 83.9698 77.88C83.6284 78.008 83.5004 77.9867 83.5858 77.816C83.7564 77.432 83.9271 76.9627 84.0978 76.408C84.3111 75.8107 84.4178 75.2987 84.4178 74.872C84.4178 74.1893 84.1191 73.848 83.5218 73.848H73.5378C73.1538 73.848 72.8551 74.0187 72.6418 74.36C71.4044 76.8347 70.0604 79.48 68.6098 82.296C67.2018 85.112 65.5591 87.5227 63.6818 89.528C62.6151 90.68 61.3778 91.6187 59.9698 92.344C58.5618 93.0693 57.1111 93.432 55.6178 93.432ZM87.0438 91.128C86.3611 91.128 85.7424 91 85.1878 90.744C84.6758 90.4453 84.4198 89.8267 84.4198 88.888C84.4198 87.3947 84.8038 85.9013 85.5718 84.408C86.3398 82.872 87.1291 81.528 87.9398 80.376C88.6651 79.3947 89.4758 78.4773 90.3718 77.624C91.3104 76.728 92.3131 75.96 93.3798 75.32C94.0624 74.8933 94.9798 74.4453 96.1318 73.976C97.3264 73.464 98.3291 73.208 99.1398 73.208C99.8224 73.208 100.42 73.4 100.932 73.784C101.444 74.1253 101.7 74.7653 101.7 75.704C101.7 77.1547 101.316 78.648 100.548 80.184C99.8224 81.6773 99.0544 83 98.2438 84.152C97.8598 84.664 97.4758 85.1547 97.0918 85.624C96.7078 86.0507 96.2811 86.4987 95.8118 86.968C97.3904 86.968 98.8411 86.52 100.164 85.624C101.486 84.6853 102.638 83.5547 103.62 82.232L103.748 82.104C103.876 82.104 103.94 82.232 103.94 82.488C103.94 82.7867 103.854 83.064 103.684 83.32C102.83 84.5147 101.764 85.5813 100.484 86.52C99.2038 87.416 97.7531 87.864 96.1318 87.864C95.9611 87.864 95.7904 87.864 95.6198 87.864C95.4491 87.864 95.2784 87.8427 95.1078 87.8C92.7184 90.0187 90.0304 91.128 87.0438 91.128ZM88.7078 90.04C89.3051 90.04 89.9451 89.8267 90.6278 89.4C91.3531 88.9733 91.9078 88.568 92.2917 88.184C93.0171 87.4587 93.6784 86.6907 94.2758 85.88C94.8731 85.0267 95.4278 84.1733 95.9398 83.32C96.5371 82.296 97.1344 81.08 97.7318 79.672C98.3291 78.264 98.6278 76.9413 98.6278 75.704C98.6278 74.7227 98.2864 74.232 97.6038 74.232C97.0491 74.232 96.3664 74.4667 95.5558 74.936C94.7878 75.4053 94.2118 75.832 93.8278 76.216C92.3771 77.7093 91.1611 79.3307 90.1798 81.08C89.6251 82.0613 89.0278 83.2133 88.3878 84.536C87.7478 85.8587 87.4278 87.0747 87.4278 88.184C87.4278 88.3547 87.4278 88.5253 87.4278 88.696C87.4704 88.824 87.5131 88.9733 87.5558 89.144C87.7264 89.7413 88.1104 90.04 88.7078 90.04ZM105.517 91.192C105.091 91.192 104.728 91.1067 104.429 90.936C104.131 90.7653 103.981 90.4453 103.981 89.976C103.981 89.3787 104.131 88.6747 104.429 87.864C104.771 87.0533 105.133 86.2427 105.517 85.432C105.901 84.6213 106.221 83.96 106.477 83.448C106.691 83.064 106.968 82.4667 107.309 81.656C107.693 80.8027 108.077 79.928 108.461 79.032C108.888 78.0933 109.229 77.304 109.485 76.664C109.784 76.024 109.933 75.704 109.933 75.704C109.549 76.1307 109.037 76.728 108.397 77.496C107.8 78.264 107.139 79.0747 106.413 79.928C105.731 80.7387 105.091 81.5067 104.493 82.232C103.939 82.9573 103.533 83.4907 103.277 83.832C103.149 84.0027 103.043 84.088 102.957 84.088C102.872 84.088 102.829 83.9813 102.829 83.768C102.829 83.4267 102.936 83.1067 103.149 82.808C103.661 82.168 104.28 81.4 105.005 80.504C105.731 79.5653 106.456 78.6267 107.181 77.688C107.949 76.7493 108.611 75.9173 109.165 75.192C108.824 75.192 108.376 75.2133 107.821 75.256C107.309 75.2987 106.84 75.3627 106.413 75.448C105.987 75.4907 105.752 75.512 105.709 75.512C105.496 75.512 105.517 75.3413 105.773 75C106.029 74.6587 106.371 74.3173 106.797 73.976C107.224 73.6347 107.544 73.464 107.757 73.464C107.8 73.464 108.141 73.4853 108.781 73.528C109.421 73.528 109.891 73.528 110.189 73.528C111.043 72.376 111.875 71.0533 112.685 69.56C113.539 68.0667 114.371 66.424 115.181 64.632C115.523 64.5893 116.099 64.3547 116.909 63.928C117.763 63.4587 118.424 62.9893 118.893 62.52C119.107 62.3067 119.277 62.2 119.405 62.2C119.661 62.2 119.661 62.3707 119.405 62.712C119.107 63.0533 118.595 63.7787 117.869 64.888C117.144 65.9547 116.333 67.256 115.437 68.792C114.541 70.2853 113.688 71.864 112.877 73.528H118.061C118.531 73.528 118.765 73.592 118.765 73.72C118.765 73.8907 118.445 74.0613 117.805 74.232C117.08 74.4453 116.312 74.5733 115.501 74.616C114.733 74.6587 114.008 74.744 113.325 74.872C112.685 75 112.216 75.2773 111.917 75.704C111.661 76.0027 111.299 76.6427 110.829 77.624C110.36 78.6053 109.848 79.736 109.293 81.016C108.781 82.2533 108.333 83.512 107.949 84.792C107.565 86.0293 107.331 87.0747 107.245 87.928V88.184C107.245 88.5253 107.352 88.8027 107.565 89.016C107.779 89.2293 107.992 89.336 108.205 89.336C108.76 89.336 109.464 88.9947 110.317 88.312C111.213 87.6293 112.131 86.8187 113.069 85.88C114.008 84.8987 114.819 84.0027 115.501 83.192C115.8 82.8507 116.056 82.5307 116.269 82.232C116.525 81.9333 116.675 81.7413 116.717 81.656C116.803 81.8267 116.845 81.9547 116.845 82.04C116.845 82.296 116.76 82.5733 116.589 82.872C116.461 83.1707 116.312 83.4267 116.141 83.64C115.331 84.7067 114.349 85.8373 113.197 87.032C112.045 88.184 110.808 89.1653 109.485 89.976C108.205 90.7867 106.883 91.192 105.517 91.192ZM116.669 91.128C115.986 91.128 115.367 91 114.813 90.744C114.301 90.4453 114.045 89.8267 114.045 88.888C114.045 87.3947 114.429 85.9013 115.197 84.408C115.965 82.872 116.754 81.528 117.565 80.376C118.29 79.3947 119.101 78.4773 119.997 77.624C120.935 76.728 121.938 75.96 123.005 75.32C123.687 74.8933 124.605 74.4453 125.757 73.976C126.951 73.464 127.954 73.208 128.765 73.208C129.447 73.208 130.045 73.4 130.557 73.784C131.069 74.1253 131.325 74.7653 131.325 75.704C131.325 77.1547 130.941 78.648 130.173 80.184C129.447 81.6773 128.679 83 127.869 84.152C127.485 84.664 127.101 85.1547 126.717 85.624C126.333 86.0507 125.906 86.4987 125.437 86.968C127.015 86.968 128.466 86.52 129.789 85.624C131.111 84.6853 132.263 83.5547 133.245 82.232L133.373 82.104C133.501 82.104 133.565 82.232 133.565 82.488C133.565 82.7867 133.479 83.064 133.309 83.32C132.455 84.5147 131.389 85.5813 130.109 86.52C128.829 87.416 127.378 87.864 125.757 87.864C125.586 87.864 125.415 87.864 125.245 87.864C125.074 87.864 124.903 87.8427 124.733 87.8C122.343 90.0187 119.655 91.128 116.669 91.128ZM118.333 90.04C118.93 90.04 119.57 89.8267 120.253 89.4C120.978 88.9733 121.533 88.568 121.917 88.184C122.642 87.4587 123.303 86.6907 123.901 85.88C124.498 85.0267 125.053 84.1733 125.565 83.32C126.162 82.296 126.759 81.08 127.357 79.672C127.954 78.264 128.253 76.9413 128.253 75.704C128.253 74.7227 127.911 74.232 127.229 74.232C126.674 74.232 125.991 74.4667 125.181 74.936C124.413 75.4053 123.837 75.832 123.453 76.216C122.002 77.7093 120.786 79.3307 119.805 81.08C119.25 82.0613 118.653 83.2133 118.013 84.536C117.373 85.8587 117.053 87.0747 117.053 88.184C117.053 88.3547 117.053 88.5253 117.053 88.696C117.095 88.824 117.138 88.9733 117.181 89.144C117.351 89.7413 117.735 90.04 118.333 90.04ZM121.126 113.4C119.505 113.4 117.948 113.016 116.454 112.248C114.918 111.523 113.788 110.392 113.062 108.856C112.764 108.301 112.572 107.704 112.486 107.064C112.401 106.467 112.358 105.869 112.358 105.272V104.632C112.358 104.291 112.401 103.971 112.486 103.672C112.572 103.373 112.806 103.224 113.19 103.224C113.276 103.224 113.318 103.267 113.318 103.352C113.318 103.608 113.297 103.864 113.254 104.12C113.212 104.376 113.19 104.653 113.19 104.952C113.19 106.915 113.83 108.408 115.11 109.432C116.348 110.456 117.905 110.968 119.782 110.968C120.55 110.968 121.34 110.883 122.15 110.712C122.961 110.541 123.708 110.307 124.39 110.008C127.121 108.856 129.489 107.192 131.494 105.016C133.542 102.84 135.313 100.387 136.806 97.656C138.342 94.9253 139.686 92.1307 140.838 89.272C142.033 86.3707 143.142 83.64 144.166 81.08C143.27 82.5307 142.289 83.832 141.222 84.984C140.156 86.0933 138.961 87.2027 137.638 88.312C136.828 88.9947 135.932 89.6347 134.95 90.232C134.012 90.8293 132.988 91.128 131.878 91.128C131.452 91.128 131.153 91 130.982 90.744C130.812 90.4453 130.726 90.104 130.726 89.72V89.272C130.94 87.608 131.473 85.88 132.326 84.088C133.222 82.296 134.289 80.6107 135.526 79.032C136.764 77.4533 138.022 76.1733 139.302 75.192C140.753 74.0827 142.353 73.528 144.102 73.528H151.462C151.676 73.528 151.782 73.6133 151.782 73.784C151.782 74.1253 151.59 74.296 151.206 74.296C150.737 74.296 150.289 74.488 149.862 74.872C149.436 75.256 149.116 75.6187 148.902 75.96C148.476 76.6427 147.921 77.688 147.238 79.096C146.556 80.504 145.809 82.1253 144.998 83.96C144.188 85.752 143.377 87.5867 142.566 89.464C141.756 91.2987 141.009 93.0267 140.326 94.648C139.302 97.08 138.129 99.448 136.806 101.752C135.526 104.099 133.99 106.189 132.198 108.024C130.449 109.901 128.358 111.373 125.926 112.44C124.476 113.08 122.876 113.4 121.126 113.4ZM134.502 88.952C135.014 88.952 135.718 88.5893 136.614 87.864C137.51 87.096 138.492 86.1573 139.558 85.048C140.625 83.896 141.628 82.7013 142.566 81.464C143.505 80.184 144.273 79.032 144.87 78.008C145.51 76.9413 145.83 76.1307 145.83 75.576C145.83 75.1067 145.681 74.7867 145.382 74.616C145.126 74.4453 144.785 74.36 144.358 74.36C143.676 74.36 142.95 74.616 142.182 75.128C141.414 75.5973 140.796 76.0667 140.326 76.536C139.814 77.0053 139.196 77.752 138.47 78.776C137.788 79.7573 137.084 80.8453 136.358 82.04C135.676 83.2347 135.1 84.3867 134.63 85.496C134.161 86.6053 133.926 87.5013 133.926 88.184C133.926 88.696 134.118 88.952 134.502 88.952ZM149.904 91.896C149.733 91.896 149.733 91.7253 149.904 91.384C150.117 91 150.309 90.5733 150.48 90.104C150.693 89.6347 150.906 89.1227 151.12 88.568C151.546 87.544 152.016 86.392 152.528 85.112C153.04 83.832 153.53 82.5947 154 81.4C154.469 80.1627 154.874 79.1173 155.216 78.264C155.6 77.368 155.856 76.792 155.984 76.536C155.386 77.176 154.661 77.9867 153.808 78.968C152.997 79.9067 152.229 80.824 151.504 81.72C150.778 82.616 150.224 83.32 149.84 83.832C149.712 84.0027 149.605 84.088 149.52 84.088C149.434 84.088 149.392 83.9813 149.392 83.768C149.392 83.4267 149.498 83.1067 149.712 82.808C150.522 81.784 151.418 80.632 152.4 79.352C153.424 78.072 154.341 76.8987 155.152 75.832C155.962 74.7227 156.474 73.9973 156.688 73.656C157.157 73.5707 157.84 73.4427 158.736 73.272C159.674 73.1013 160.314 72.8667 160.656 72.568C160.784 72.44 160.912 72.376 161.04 72.376C161.125 72.376 161.168 72.4613 161.168 72.632C161.21 72.76 161.168 72.9093 161.04 73.08C160.784 73.336 160.4 73.8907 159.888 74.744C159.418 75.5973 158.885 76.5787 158.288 77.688C157.69 78.7973 157.114 79.864 156.56 80.888C156.986 80.248 157.541 79.5013 158.224 78.648C158.949 77.752 159.738 76.8987 160.592 76.088C161.445 75.2347 162.298 74.5307 163.152 73.976C164.048 73.4213 164.88 73.144 165.648 73.144C166.202 73.144 166.672 73.272 167.056 73.528C167.44 73.7413 167.738 74.1467 167.952 74.744C168.08 75.0427 168.144 75.384 168.144 75.768C168.144 76.4933 167.952 77.1973 167.568 77.88C167.226 78.52 166.97 79.0107 166.8 79.352C166.757 79.48 166.608 79.608 166.352 79.736C166.096 79.8213 165.989 79.7787 166.032 79.608C166.074 79.3947 166.096 79.1813 166.096 78.968C166.138 78.7547 166.16 78.52 166.16 78.264C166.16 77.5387 166.01 76.8773 165.712 76.28C165.456 75.6827 164.965 75.384 164.24 75.384C163.557 75.384 162.725 75.8107 161.744 76.664C160.762 77.5173 159.781 78.4987 158.8 79.608C157.562 81.0587 156.581 82.4453 155.856 83.768C155.13 85.048 154.533 86.3067 154.064 87.544C153.808 88.2267 153.552 88.9093 153.296 89.592C153.04 90.232 152.848 90.744 152.72 91.128C152.165 91.1707 151.61 91.2987 151.056 91.512C150.501 91.768 150.117 91.896 149.904 91.896ZM175.661 91.192C175.235 91.192 174.872 91.1067 174.573 90.936C174.275 90.7653 174.125 90.4453 174.125 89.976C174.125 89.3787 174.275 88.696 174.573 87.928C174.872 87.16 175.213 86.4133 175.597 85.688C175.981 84.92 176.323 84.3013 176.621 83.832C175.128 85.4107 173.571 86.904 171.949 88.312C171.139 88.9947 170.243 89.6347 169.261 90.232C168.28 90.8293 167.235 91.128 166.125 91.128C165.699 91.128 165.4 91 165.229 90.744C165.059 90.4453 164.973 90.104 164.973 89.72C164.973 89.5067 164.995 89.3573 165.037 89.272C165.251 87.608 165.784 85.88 166.637 84.088C167.491 82.296 168.536 80.6107 169.773 79.032C171.011 77.4533 172.269 76.1733 173.549 75.192C175 74.0827 176.6 73.528 178.349 73.528H185.709C185.923 73.528 186.029 73.6133 186.029 73.784C186.029 74.1253 185.837 74.296 185.453 74.296C185.027 74.296 184.6 74.5733 184.173 75.128C183.747 75.64 183.427 76.0667 183.213 76.408C182.915 76.8773 182.445 77.6667 181.805 78.776C181.165 79.8853 180.504 81.1013 179.821 82.424C179.181 83.704 178.627 84.8987 178.157 86.008C177.688 87.1173 177.453 87.928 177.453 88.44C177.453 89.0373 177.752 89.336 178.349 89.336C178.989 89.336 179.715 89.0373 180.525 88.44C181.336 87.8427 182.147 87.1173 182.957 86.264C183.811 85.368 184.579 84.4933 185.261 83.64C185.987 82.744 186.563 82.04 186.989 81.528C187.245 81.784 187.224 82.1467 186.925 82.616C186.669 83.0427 186.435 83.384 186.221 83.64C185.368 84.7493 184.387 85.9013 183.277 87.096C182.168 88.248 180.952 89.2293 179.629 90.04C178.349 90.808 177.027 91.192 175.661 91.192ZM168.749 88.952C169.261 88.952 169.965 88.5893 170.861 87.864C171.8 87.096 172.803 86.1573 173.869 85.048C174.936 83.896 175.939 82.7013 176.877 81.464C177.816 80.184 178.584 79.032 179.181 78.008C179.821 76.9413 180.141 76.1307 180.141 75.576C180.141 75.1067 179.992 74.7867 179.693 74.616C179.437 74.4453 179.096 74.36 178.669 74.36C177.987 74.36 177.24 74.616 176.429 75.128C175.661 75.5973 175.043 76.0667 174.573 76.536C174.061 77.0053 173.443 77.752 172.717 78.776C172.035 79.7573 171.352 80.8453 170.669 82.04C169.987 83.2347 169.411 84.3867 168.941 85.496C168.472 86.6053 168.237 87.5013 168.237 88.184C168.237 88.696 168.408 88.952 168.749 88.952ZM170.922 105.464C169.258 105.464 167.871 105.187 166.762 104.632C165.61 104.12 164.842 103.331 164.458 102.264C164.415 102.136 164.394 102.008 164.394 101.88C164.351 101.752 164.33 101.603 164.33 101.432C164.33 100.792 164.479 100.067 164.778 99.256C165.076 98.488 165.396 97.656 165.738 96.76C165.866 96.504 166.015 96.376 166.186 96.376C166.484 96.376 166.57 96.5893 166.442 97.016C166.143 97.656 165.994 98.3387 165.994 99.064C165.994 100.515 166.634 101.667 167.914 102.52C169.194 103.373 170.644 103.8 172.266 103.8C172.906 103.8 173.567 103.715 174.25 103.544C174.89 103.416 175.508 103.203 176.106 102.904C178.111 101.88 179.754 100.515 181.034 98.808C182.314 97.1013 183.444 95.3307 184.426 93.496C185.919 90.6373 187.199 87.6507 188.266 84.536C189.375 81.3787 190.548 78.264 191.786 75.192H190.314C190.1 75.192 189.866 75.2133 189.61 75.256C189.354 75.2987 189.119 75.3413 188.906 75.384L188.778 75.32C188.863 74.8507 189.268 74.4453 189.994 74.104C190.762 73.72 191.359 73.528 191.786 73.528H192.554C193.023 72.376 193.642 71.0107 194.41 69.432C195.22 67.8533 196.031 66.296 196.842 64.76C197.695 63.1813 198.442 61.8587 199.082 60.792C200.874 57.848 202.836 55.6293 204.97 54.136C207.103 52.6427 209.471 51.896 212.074 51.896C212.586 51.896 213.076 52.0667 213.546 52.408C214.058 52.7067 214.292 53.176 214.25 53.816L214.058 56.12C214.058 56.248 213.951 56.312 213.738 56.312C213.652 56.312 213.61 56.2907 213.61 56.248C213.482 55.48 213.076 54.8827 212.394 54.456C211.754 54.0293 210.986 53.816 210.09 53.816C209.45 53.816 208.767 53.944 208.042 54.2C206.847 54.584 205.695 55.288 204.586 56.312C203.519 57.2933 202.367 58.8507 201.13 60.984C200.532 62.0507 199.914 63.3093 199.274 64.76C198.634 66.2107 197.994 67.704 197.354 69.24C196.714 70.776 196.095 72.2053 195.498 73.528C196.522 73.528 197.524 73.5493 198.506 73.592C199.487 73.592 200.404 73.592 201.258 73.592C202.538 73.592 203.711 73.5493 204.778 73.464C205.844 73.3787 206.783 73.1867 207.594 72.888L208.49 72.568C208.575 72.5253 208.703 72.504 208.874 72.504C208.959 72.504 209.002 72.5467 209.002 72.632C209.002 72.76 208.916 72.9093 208.746 73.08C208.49 73.3787 208.042 74.104 207.402 75.256C206.762 76.408 206.079 77.688 205.354 79.096C204.671 80.4613 204.052 81.6987 203.498 82.808C202.858 83.96 202.324 85.0693 201.898 86.136C201.471 87.2027 201.258 87.9707 201.258 88.44C201.258 89.0373 201.556 89.336 202.154 89.336C202.708 89.336 203.434 88.9947 204.33 88.312C205.226 87.6293 206.143 86.8187 207.082 85.88C208.02 84.8987 208.831 84.0027 209.514 83.192C209.727 82.936 209.983 82.6373 210.282 82.296C210.58 81.912 210.772 81.6773 210.858 81.592C211.114 81.848 211.092 82.232 210.794 82.744C210.495 83.2133 210.239 83.5547 210.026 83.768C209.087 84.8773 208.084 86.008 207.018 87.16C205.951 88.312 204.799 89.272 203.562 90.04C202.324 90.808 200.959 91.192 199.466 91.192C199.039 91.192 198.676 91.1067 198.378 90.936C198.079 90.7653 197.93 90.4453 197.93 89.976C197.93 89.3787 198.079 88.6747 198.378 87.864C198.719 87.0533 199.082 86.2427 199.466 85.432C199.892 84.6213 200.212 83.96 200.426 83.448C200.724 82.8507 201.087 82.0827 201.514 81.144C201.983 80.1627 202.41 79.2453 202.794 78.392C203.22 77.496 203.519 76.8773 203.69 76.536C203.903 76.1093 204.031 75.7467 204.074 75.448C204.159 75.1067 204.223 74.8293 204.266 74.616C203.412 74.7867 202.388 74.936 201.194 75.064C199.999 75.1493 198.826 75.192 197.674 75.192C196.522 75.192 195.562 75.192 194.794 75.192C193.855 77.5387 192.959 79.7787 192.106 81.912C191.295 84.0027 190.399 86.0507 189.418 88.056C188.607 89.848 187.604 91.7467 186.41 93.752C185.215 95.7573 183.85 97.656 182.314 99.448C180.778 101.24 179.071 102.691 177.194 103.8C175.274 104.909 173.183 105.464 170.922 105.464ZM210.602 66.552C209.962 66.552 209.514 66.36 209.258 65.976C209.215 65.848 209.151 65.72 209.066 65.592C209.023 65.464 209.002 65.336 209.002 65.208C209.002 64.4827 209.343 63.9067 210.026 63.48C210.495 63.224 210.922 63.096 211.306 63.096C211.946 63.096 212.394 63.288 212.65 63.672C212.735 63.8 212.799 63.928 212.842 64.056C212.884 64.184 212.906 64.312 212.906 64.44C212.906 65.1653 212.564 65.7413 211.882 66.168C211.455 66.424 211.028 66.552 210.602 66.552ZM213.293 91.512C211.543 91.512 210.327 91.1707 209.645 90.488C208.962 89.8053 208.621 88.9733 208.621 87.992C208.621 86.7547 208.941 85.432 209.581 84.024C210.263 82.616 210.903 81.4213 211.501 80.44C212.183 79.416 213.101 78.3493 214.253 77.24C215.405 76.1307 216.663 75.192 218.029 74.424C219.394 73.656 220.717 73.272 221.997 73.272C223.106 73.272 223.874 73.5493 224.301 74.104C224.727 74.616 224.941 75.2347 224.941 75.96C224.941 77.2827 224.535 78.3707 223.725 79.224C222.957 80.0773 221.997 80.7813 220.845 81.336C219.693 81.848 218.583 82.2747 217.517 82.616C216.877 82.7867 216.13 82.9573 215.277 83.128C214.423 83.2987 213.613 83.384 212.845 83.384C212.546 84.152 212.311 84.8987 212.141 85.624C211.97 86.3493 211.885 87.0107 211.885 87.608C211.885 88.3333 212.055 88.9307 212.397 89.4C212.781 89.8693 213.399 90.104 214.253 90.104C214.594 90.104 214.999 90.0613 215.469 89.976C215.938 89.8907 216.45 89.7627 217.005 89.592C218.285 89.1653 219.543 88.4827 220.781 87.544C222.018 86.6053 223.149 85.6027 224.173 84.536C225.239 83.4267 226.05 82.5093 226.605 81.784C226.733 81.912 226.797 82.0613 226.797 82.232C226.797 82.4453 226.647 82.7867 226.349 83.256C225.495 84.4507 224.386 85.688 223.021 86.968C221.655 88.248 220.141 89.336 218.477 90.232C216.813 91.0853 215.085 91.512 213.293 91.512ZM213.357 82.104C213.911 82.1467 214.53 82.1467 215.213 82.104C215.938 82.0187 216.642 81.8693 217.325 81.656C219.074 81.144 220.333 80.3333 221.101 79.224C221.911 78.072 222.317 77.048 222.317 76.152C222.317 75.64 222.21 75.2133 221.997 74.872C221.783 74.5307 221.442 74.36 220.973 74.36C219.735 74.36 218.626 74.8293 217.645 75.768C216.663 76.664 215.81 77.7093 215.085 78.904C214.359 80.0987 213.783 81.1653 213.357 82.104Z" fill="white"/>
</svg>
