<svg width="230" height="124" viewBox="0 0 230 124" fill="none" xmlns="http://www.w3.org/2000/svg">
<path d="M39.7241 40V14.872H45.1961V35.14H54.7721V40H39.7241ZM72.6346 40C71.6746 40 70.8706 39.7 70.2226 39.1C69.5986 38.5 69.2026 37.696 69.0346 36.688H68.8186C68.5306 37.912 67.8946 38.848 66.9106 39.496C65.9266 40.12 64.7146 40.432 63.2746 40.432C61.3786 40.432 59.9266 39.928 58.9186 38.92C57.9106 37.912 57.4066 36.58 57.4066 34.924C57.4066 32.932 58.1266 31.456 59.5666 30.496C61.0306 29.512 63.0106 29.02 65.5066 29.02H68.4946V27.832C68.4946 26.92 68.2546 26.2 67.7746 25.672C67.2946 25.12 66.4906 24.844 65.3626 24.844C64.3066 24.844 63.4666 25.072 62.8426 25.528C62.2186 25.984 61.7026 26.5 61.2946 27.076L58.1266 24.268C58.8946 23.14 59.8546 22.264 61.0066 21.64C62.1826 20.992 63.7666 20.668 65.7586 20.668C68.4466 20.668 70.4626 21.256 71.8066 22.432C73.1506 23.608 73.8226 25.324 73.8226 27.58V35.86H75.5866V40H72.6346ZM65.2546 36.724C66.1426 36.724 66.8986 36.532 67.5226 36.148C68.1706 35.764 68.4946 35.14 68.4946 34.276V32.044H65.9026C63.8146 32.044 62.7706 32.752 62.7706 34.168V34.708C62.7706 35.404 62.9866 35.92 63.4186 36.256C63.8506 36.568 64.4626 36.724 65.2546 36.724ZM79.1627 40V21.1H84.4907V25.204H84.6707C84.7667 24.676 84.9347 24.172 85.1747 23.692C85.4147 23.188 85.7267 22.744 86.1107 22.36C86.5187 21.976 86.9987 21.676 87.5507 21.46C88.1027 21.22 88.7507 21.1 89.4947 21.1H90.4307V26.068H89.0987C87.5387 26.068 86.3747 26.272 85.6067 26.68C84.8627 27.088 84.4907 27.844 84.4907 28.948V40H79.1627ZM107.193 40C106.233 40 105.429 39.7 104.781 39.1C104.157 38.5 103.761 37.696 103.593 36.688H103.377C103.089 37.912 102.453 38.848 101.469 39.496C100.485 40.12 99.2732 40.432 97.8332 40.432C95.9372 40.432 94.4852 39.928 93.4772 38.92C92.4692 37.912 91.9652 36.58 91.9652 34.924C91.9652 32.932 92.6852 31.456 94.1252 30.496C95.5892 29.512 97.5692 29.02 100.065 29.02H103.053V27.832C103.053 26.92 102.813 26.2 102.333 25.672C101.853 25.12 101.049 24.844 99.9212 24.844C98.8652 24.844 98.0252 25.072 97.4012 25.528C96.7772 25.984 96.2612 26.5 95.8532 27.076L92.6852 24.268C93.4532 23.14 94.4132 22.264 95.5652 21.64C96.7412 20.992 98.3252 20.668 100.317 20.668C103.005 20.668 105.021 21.256 106.365 22.432C107.709 23.608 108.381 25.324 108.381 27.58V35.86H110.145V40H107.193ZM99.8132 36.724C100.701 36.724 101.457 36.532 102.081 36.148C102.729 35.764 103.053 35.14 103.053 34.276V32.044H100.461C98.3732 32.044 97.3292 32.752 97.3292 34.168V34.708C97.3292 35.404 97.5452 35.92 97.9772 36.256C98.4092 36.568 99.0212 36.724 99.8132 36.724ZM131.265 29.056L127.989 33.016V40H122.517V14.872H127.989V26.824H128.205L131.769 21.964L137.421 14.872H143.613L135.153 25.204L144.369 40H137.925L131.265 29.056ZM157.752 36.832H157.572C157.404 37.312 157.176 37.768 156.888 38.2C156.624 38.632 156.276 39.016 155.844 39.352C155.412 39.688 154.896 39.952 154.296 40.144C153.72 40.336 153.048 40.432 152.28 40.432C150.336 40.432 148.86 39.796 147.852 38.524C146.868 37.228 146.376 35.38 146.376 32.98V21.1H151.704V32.512C151.704 33.664 151.908 34.552 152.316 35.176C152.724 35.8 153.42 36.112 154.404 36.112C154.812 36.112 155.22 36.052 155.628 35.932C156.036 35.812 156.396 35.644 156.708 35.428C157.02 35.188 157.272 34.9 157.464 34.564C157.656 34.228 157.752 33.832 157.752 33.376V21.1H163.08V40H157.752V36.832ZM175.67 40.432C174.254 40.432 172.994 40.204 171.89 39.748C170.786 39.268 169.862 38.608 169.118 37.768C168.374 36.904 167.81 35.86 167.426 34.636C167.042 33.412 166.85 32.044 166.85 30.532C166.85 29.02 167.042 27.664 167.426 26.464C167.81 25.24 168.374 24.196 169.118 23.332C169.862 22.468 170.786 21.808 171.89 21.352C172.994 20.896 174.254 20.668 175.67 20.668C177.59 20.668 179.186 21.1 180.458 21.964C181.754 22.828 182.678 24.04 183.23 25.6L178.91 27.472C178.742 26.752 178.394 26.14 177.866 25.636C177.338 25.132 176.606 24.88 175.67 24.88C174.59 24.88 173.774 25.24 173.222 25.96C172.67 26.656 172.394 27.604 172.394 28.804V32.332C172.394 33.532 172.67 34.48 173.222 35.176C173.774 35.872 174.59 36.22 175.67 36.22C176.63 36.22 177.386 35.968 177.938 35.464C178.514 34.936 178.934 34.252 179.198 33.412L183.338 35.212C182.714 37.012 181.742 38.332 180.422 39.172C179.126 40.012 177.542 40.432 175.67 40.432ZM186.635 13.36H191.963V24.304H192.179C192.515 23.32 193.103 22.468 193.943 21.748C194.783 21.028 195.947 20.668 197.435 20.668C199.379 20.668 200.843 21.316 201.827 22.612C202.835 23.908 203.339 25.756 203.339 28.156V40H198.011V28.588C198.011 27.364 197.819 26.464 197.435 25.888C197.051 25.288 196.367 24.988 195.383 24.988C194.951 24.988 194.531 25.048 194.123 25.168C193.715 25.264 193.343 25.432 193.007 25.672C192.695 25.912 192.443 26.212 192.251 26.572C192.059 26.908 191.963 27.304 191.963 27.76V40H186.635V13.36ZM215.965 40.432C214.525 40.432 213.241 40.204 212.113 39.748C210.985 39.268 210.025 38.608 209.233 37.768C208.465 36.904 207.877 35.86 207.469 34.636C207.085 33.412 206.893 32.044 206.893 30.532C206.893 29.044 207.085 27.7 207.469 26.5C207.853 25.276 208.417 24.232 209.161 23.368C209.929 22.504 210.865 21.844 211.969 21.388C213.073 20.908 214.333 20.668 215.749 20.668C217.309 20.668 218.641 20.932 219.745 21.46C220.873 21.988 221.785 22.696 222.481 23.584C223.201 24.472 223.717 25.504 224.029 26.68C224.365 27.832 224.533 29.044 224.533 30.316V31.9H212.401V32.188C212.401 33.436 212.737 34.432 213.409 35.176C214.081 35.896 215.137 36.256 216.577 36.256C217.681 36.256 218.581 36.04 219.277 35.608C219.973 35.152 220.621 34.612 221.221 33.988L223.885 37.3C223.045 38.284 221.941 39.052 220.573 39.604C219.229 40.156 217.693 40.432 215.965 40.432ZM215.857 24.592C214.777 24.592 213.925 24.952 213.301 25.672C212.701 26.368 212.401 27.304 212.401 28.48V28.768H219.025V28.444C219.025 27.292 218.761 26.368 218.233 25.672C217.729 24.952 216.937 24.592 215.857 24.592Z" fill="white"/>
<path d="M9.07929 93.432C7.75662 93.432 6.49796 93.048 5.30329 92.28C4.10862 91.5547 3.21262 90.424 2.61529 88.888C2.40196 88.3333 2.25262 87.736 2.16729 87.096C2.12462 86.456 2.10329 85.8373 2.10329 85.24V84.408C2.10329 84.1093 2.12462 83.832 2.16729 83.576C2.25262 83.32 2.42329 83.192 2.67929 83.192C2.76462 83.192 2.80729 83.2347 2.80729 83.32C2.80729 83.576 2.78596 83.832 2.74329 84.088C2.74329 84.344 2.74329 84.6 2.74329 84.856C2.74329 86.8613 3.23396 88.3973 4.21529 89.464C5.23929 90.488 6.49796 91 7.99129 91C9.48462 91 10.9353 90.5733 12.3433 89.72C13.7513 88.824 15.0526 87.7147 16.2473 86.392C16.93 85.6667 17.698 84.5787 18.5513 83.128C19.4473 81.6347 20.3646 79.9707 21.3033 78.136C22.2846 76.2587 23.266 74.3387 24.2473 72.376C25.2286 70.3707 26.1673 68.4507 27.0633 66.616C27.9593 64.7387 28.77 63.096 29.4953 61.688C30.178 60.3653 31.0953 59.32 32.2473 58.552C33.3993 57.784 34.3806 57.2507 35.1913 56.952C34.8926 56.952 34.2526 56.9733 33.2713 57.016C32.3326 57.0587 31.33 57.1013 30.2633 57.144C29.1966 57.1867 28.3433 57.2293 27.7033 57.272C26.082 57.3573 24.4393 57.5493 22.7753 57.848C21.1113 58.1467 19.6393 58.552 18.3593 59.064C17.0793 59.576 16.162 60.2373 15.6073 61.048C15.2233 61.6027 15.0313 62.2427 15.0313 62.968C15.0313 64.4187 15.6713 65.464 16.9513 66.104C17.0366 66.1893 17.0793 66.232 17.0793 66.232C17.0793 66.36 16.9726 66.488 16.7593 66.616C16.546 66.7013 16.3326 66.7227 16.1193 66.68C15.778 66.4667 15.3513 66.1253 14.8393 65.656C14.37 65.144 13.922 64.6107 13.4953 64.056C13.1113 63.5013 12.8553 63.032 12.7273 62.648C12.514 62.008 12.4073 61.496 12.4073 61.112C12.4073 60.088 12.7913 59.256 13.5593 58.616C14.3273 57.9333 15.33 57.4213 16.5673 57.08C17.8046 56.696 19.1273 56.44 20.5353 56.312C21.9433 56.1413 23.3086 56.0347 24.6313 55.992C25.954 55.9493 27.0846 55.928 28.0233 55.928C30.1993 55.928 32.1406 55.928 33.8473 55.928C35.5966 55.8853 37.1966 55.864 38.6473 55.864C40.1406 55.864 41.57 55.8853 42.9353 55.928C44.3433 55.9707 45.8153 56.0347 47.3513 56.12C48.4606 56.1627 49.2073 56.376 49.5913 56.76C50.018 57.144 50.2313 57.6133 50.2313 58.168C50.2313 58.8933 49.9966 59.6827 49.5273 60.536C49.058 61.3893 48.6313 62.1787 48.2473 62.904C48.0766 63.2453 47.7993 63.5013 47.4153 63.672C47.0313 63.8 46.882 63.672 46.9673 63.288C47.0526 62.904 47.138 62.4987 47.2233 62.072C47.3086 61.6027 47.3513 61.1547 47.3513 60.728C47.3513 59.96 47.202 59.2773 46.9033 58.68C46.6046 58.04 46.0926 57.592 45.3673 57.336C44.9406 57.1653 44.4286 57.0587 43.8313 57.016C43.234 56.9307 42.594 56.888 41.9113 56.888C40.6313 56.888 39.3513 57.016 38.0713 57.272C36.7913 57.528 35.7886 57.9333 35.0633 58.488C34.1673 59.1707 33.25 60.28 32.3113 61.816C31.4153 63.352 30.562 64.9947 29.7513 66.744C28.9406 68.4933 28.2153 70.0293 27.5753 71.352C27.5326 71.4373 27.5113 71.5653 27.5113 71.736C27.5113 71.9493 27.7033 72.056 28.0873 72.056C28.6846 72.056 29.5166 72.056 30.5833 72.056C31.6926 72.056 32.8446 72.0773 34.0393 72.12C35.234 72.12 36.258 72.12 37.1113 72.12C38.05 72.12 38.7966 72.184 39.3513 72.312C39.906 72.3973 40.1833 72.6747 40.1833 73.144C40.1833 73.3147 40.0766 73.656 39.8633 74.168C39.5646 74.8507 39.2233 75.448 38.8393 75.96C38.498 76.4293 38.2206 76.92 38.0073 77.432C37.9646 77.6027 37.7726 77.752 37.4313 77.88C37.09 78.008 36.962 77.9867 37.0473 77.816C37.218 77.432 37.3886 76.9627 37.5593 76.408C37.7726 75.8107 37.8793 75.2987 37.8793 74.872C37.8793 74.1893 37.5806 73.848 36.9833 73.848H26.9993C26.6153 73.848 26.3166 74.0187 26.1033 74.36C24.866 76.8347 23.522 79.48 22.0713 82.296C20.6633 85.112 19.0206 87.5227 17.1433 89.528C16.0766 90.68 14.8393 91.6187 13.4313 92.344C12.0233 93.0693 10.5726 93.432 9.07929 93.432ZM40.5053 91.128C39.8226 91.128 39.204 91 38.6493 90.744C38.1373 90.4453 37.8813 89.8267 37.8813 88.888C37.8813 87.3947 38.2653 85.9013 39.0333 84.408C39.8013 82.872 40.5906 81.528 41.4013 80.376C42.1266 79.3947 42.9373 78.4773 43.8333 77.624C44.772 76.728 45.7746 75.96 46.8413 75.32C47.524 74.8933 48.4413 74.4453 49.5933 73.976C50.788 73.464 51.7906 73.208 52.6013 73.208C53.284 73.208 53.8813 73.4 54.3933 73.784C54.9053 74.1253 55.1613 74.7653 55.1613 75.704C55.1613 77.1547 54.7773 78.648 54.0093 80.184C53.284 81.6773 52.516 83 51.7053 84.152C51.3213 84.664 50.9373 85.1547 50.5533 85.624C50.1693 86.0507 49.7426 86.4987 49.2733 86.968C50.852 86.968 52.3026 86.52 53.6253 85.624C54.948 84.6853 56.1 83.5547 57.0813 82.232L57.2093 82.104C57.3373 82.104 57.4013 82.232 57.4013 82.488C57.4013 82.7867 57.316 83.064 57.1453 83.32C56.292 84.5147 55.2253 85.5813 53.9453 86.52C52.6653 87.416 51.2146 87.864 49.5933 87.864C49.4226 87.864 49.252 87.864 49.0813 87.864C48.9106 87.864 48.74 87.8427 48.5693 87.8C46.18 90.0187 43.492 91.128 40.5053 91.128ZM42.1693 90.04C42.7666 90.04 43.4066 89.8267 44.0893 89.4C44.8146 88.9733 45.3693 88.568 45.7533 88.184C46.4786 87.4587 47.14 86.6907 47.7373 85.88C48.3346 85.0267 48.8893 84.1733 49.4013 83.32C49.9986 82.296 50.596 81.08 51.1933 79.672C51.7906 78.264 52.0893 76.9413 52.0893 75.704C52.0893 74.7227 51.748 74.232 51.0653 74.232C50.5106 74.232 49.828 74.4667 49.0173 74.936C48.2493 75.4053 47.6733 75.832 47.2893 76.216C45.8386 77.7093 44.6226 79.3307 43.6413 81.08C43.0866 82.0613 42.4893 83.2133 41.8493 84.536C41.2093 85.8587 40.8893 87.0747 40.8893 88.184C40.8893 88.3547 40.8893 88.5253 40.8893 88.696C40.932 88.824 40.9746 88.9733 41.0173 89.144C41.188 89.7413 41.572 90.04 42.1693 90.04ZM58.9788 91.192C58.5521 91.192 58.1895 91.1067 57.8908 90.936C57.5921 90.7653 57.4428 90.4453 57.4428 89.976C57.4428 89.3787 57.5921 88.6747 57.8908 87.864C58.2321 87.0533 58.5948 86.2427 58.9788 85.432C59.3628 84.6213 59.6828 83.96 59.9388 83.448C60.1521 83.064 60.4295 82.4667 60.7708 81.656C61.1548 80.8027 61.5388 79.928 61.9228 79.032C62.3495 78.0933 62.6908 77.304 62.9468 76.664C63.2455 76.024 63.3948 75.704 63.3948 75.704C63.0108 76.1307 62.4988 76.728 61.8588 77.496C61.2615 78.264 60.6001 79.0747 59.8748 79.928C59.1921 80.7387 58.5521 81.5067 57.9548 82.232C57.4001 82.9573 56.9948 83.4907 56.7388 83.832C56.6108 84.0027 56.5041 84.088 56.4188 84.088C56.3335 84.088 56.2908 83.9813 56.2908 83.768C56.2908 83.4267 56.3975 83.1067 56.6108 82.808C57.1228 82.168 57.7415 81.4 58.4668 80.504C59.1921 79.5653 59.9175 78.6267 60.6428 77.688C61.4108 76.7493 62.0721 75.9173 62.6268 75.192C62.2855 75.192 61.8375 75.2133 61.2828 75.256C60.7708 75.2987 60.3015 75.3627 59.8748 75.448C59.4481 75.4907 59.2135 75.512 59.1708 75.512C58.9575 75.512 58.9788 75.3413 59.2348 75C59.4908 74.6587 59.8321 74.3173 60.2588 73.976C60.6855 73.6347 61.0055 73.464 61.2188 73.464C61.2615 73.464 61.6028 73.4853 62.2428 73.528C62.8828 73.528 63.3521 73.528 63.6508 73.528C64.5041 72.376 65.3361 71.0533 66.1468 69.56C67.0001 68.0667 67.8321 66.424 68.6428 64.632C68.9841 64.5893 69.5601 64.3547 70.3708 63.928C71.2241 63.4587 71.8855 62.9893 72.3548 62.52C72.5681 62.3067 72.7388 62.2 72.8668 62.2C73.1228 62.2 73.1228 62.3707 72.8668 62.712C72.5681 63.0533 72.0561 63.7787 71.3308 64.888C70.6055 65.9547 69.7948 67.256 68.8988 68.792C68.0028 70.2853 67.1495 71.864 66.3388 73.528H71.5228C71.9921 73.528 72.2268 73.592 72.2268 73.72C72.2268 73.8907 71.9068 74.0613 71.2668 74.232C70.5415 74.4453 69.7735 74.5733 68.9628 74.616C68.1948 74.6587 67.4695 74.744 66.7868 74.872C66.1468 75 65.6775 75.2773 65.3788 75.704C65.1228 76.0027 64.7601 76.6427 64.2908 77.624C63.8215 78.6053 63.3095 79.736 62.7548 81.016C62.2428 82.2533 61.7948 83.512 61.4108 84.792C61.0268 86.0293 60.7921 87.0747 60.7068 87.928V88.184C60.7068 88.5253 60.8135 88.8027 61.0268 89.016C61.2401 89.2293 61.4535 89.336 61.6668 89.336C62.2215 89.336 62.9255 88.9947 63.7788 88.312C64.6748 87.6293 65.5921 86.8187 66.5308 85.88C67.4695 84.8987 68.2801 84.0027 68.9628 83.192C69.2615 82.8507 69.5175 82.5307 69.7308 82.232C69.9868 81.9333 70.1361 81.7413 70.1788 81.656C70.2641 81.8267 70.3068 81.9547 70.3068 82.04C70.3068 82.296 70.2215 82.5733 70.0508 82.872C69.9228 83.1707 69.7735 83.4267 69.6028 83.64C68.7921 84.7067 67.8108 85.8373 66.6588 87.032C65.5068 88.184 64.2695 89.1653 62.9468 89.976C61.6668 90.7867 60.3441 91.192 58.9788 91.192ZM70.1303 91.128C69.4476 91.128 68.829 91 68.2743 90.744C67.7623 90.4453 67.5063 89.8267 67.5063 88.888C67.5063 87.3947 67.8903 85.9013 68.6583 84.408C69.4263 82.872 70.2156 81.528 71.0263 80.376C71.7516 79.3947 72.5623 78.4773 73.4583 77.624C74.397 76.728 75.3996 75.96 76.4663 75.32C77.149 74.8933 78.0663 74.4453 79.2183 73.976C80.413 73.464 81.4156 73.208 82.2263 73.208C82.909 73.208 83.5063 73.4 84.0183 73.784C84.5303 74.1253 84.7863 74.7653 84.7863 75.704C84.7863 77.1547 84.4023 78.648 83.6343 80.184C82.909 81.6773 82.141 83 81.3303 84.152C80.9463 84.664 80.5623 85.1547 80.1783 85.624C79.7943 86.0507 79.3676 86.4987 78.8983 86.968C80.477 86.968 81.9276 86.52 83.2503 85.624C84.573 84.6853 85.725 83.5547 86.7063 82.232L86.8343 82.104C86.9623 82.104 87.0263 82.232 87.0263 82.488C87.0263 82.7867 86.941 83.064 86.7703 83.32C85.917 84.5147 84.8503 85.5813 83.5703 86.52C82.2903 87.416 80.8396 87.864 79.2183 87.864C79.0476 87.864 78.877 87.864 78.7063 87.864C78.5356 87.864 78.365 87.8427 78.1943 87.8C75.805 90.0187 73.117 91.128 70.1303 91.128ZM71.7943 90.04C72.3916 90.04 73.0316 89.8267 73.7143 89.4C74.4396 88.9733 74.9943 88.568 75.3783 88.184C76.1036 87.4587 76.765 86.6907 77.3623 85.88C77.9596 85.0267 78.5143 84.1733 79.0263 83.32C79.6236 82.296 80.221 81.08 80.8183 79.672C81.4156 78.264 81.7143 76.9413 81.7143 75.704C81.7143 74.7227 81.373 74.232 80.6903 74.232C80.1356 74.232 79.453 74.4667 78.6423 74.936C77.8743 75.4053 77.2983 75.832 76.9143 76.216C75.4636 77.7093 74.2476 79.3307 73.2663 81.08C72.7116 82.0613 72.1143 83.2133 71.4743 84.536C70.8343 85.8587 70.5143 87.0747 70.5143 88.184C70.5143 88.3547 70.5143 88.5253 70.5143 88.696C70.557 88.824 70.5996 88.9733 70.6423 89.144C70.813 89.7413 71.197 90.04 71.7943 90.04ZM74.5878 113.4C72.9665 113.4 71.4091 113.016 69.9158 112.248C68.3798 111.523 67.2491 110.392 66.5238 108.856C66.2251 108.301 66.0331 107.704 65.9478 107.064C65.8625 106.467 65.8198 105.869 65.8198 105.272V104.632C65.8198 104.291 65.8625 103.971 65.9478 103.672C66.0331 103.373 66.2678 103.224 66.6518 103.224C66.7371 103.224 66.7798 103.267 66.7798 103.352C66.7798 103.608 66.7585 103.864 66.7158 104.12C66.6731 104.376 66.6518 104.653 66.6518 104.952C66.6518 106.915 67.2918 108.408 68.5718 109.432C69.8091 110.456 71.3665 110.968 73.2438 110.968C74.0118 110.968 74.8011 110.883 75.6118 110.712C76.4225 110.541 77.1691 110.307 77.8518 110.008C80.5825 108.856 82.9505 107.192 84.9558 105.016C87.0038 102.84 88.7745 100.387 90.2678 97.656C91.8038 94.9253 93.1478 92.1307 94.2998 89.272C95.4945 86.3707 96.6038 83.64 97.6278 81.08C96.7318 82.5307 95.7505 83.832 94.6838 84.984C93.6171 86.0933 92.4225 87.2027 91.0998 88.312C90.2891 88.9947 89.3931 89.6347 88.4118 90.232C87.4731 90.8293 86.4491 91.128 85.3398 91.128C84.9131 91.128 84.6145 91 84.4438 90.744C84.2731 90.4453 84.1878 90.104 84.1878 89.72V89.272C84.4011 87.608 84.9345 85.88 85.7878 84.088C86.6838 82.296 87.7505 80.6107 88.9878 79.032C90.2251 77.4533 91.4838 76.1733 92.7638 75.192C94.2145 74.0827 95.8145 73.528 97.5638 73.528H104.924C105.137 73.528 105.244 73.6133 105.244 73.784C105.244 74.1253 105.052 74.296 104.668 74.296C104.198 74.296 103.75 74.488 103.324 74.872C102.897 75.256 102.577 75.6187 102.364 75.96C101.937 76.6427 101.382 77.688 100.7 79.096C100.017 80.504 99.2705 82.1253 98.4598 83.96C97.6491 85.752 96.8385 87.5867 96.0278 89.464C95.2171 91.2987 94.4705 93.0267 93.7878 94.648C92.7638 97.08 91.5905 99.448 90.2678 101.752C88.9878 104.099 87.4518 106.189 85.6598 108.024C83.9105 109.901 81.8198 111.373 79.3878 112.44C77.9371 113.08 76.3371 113.4 74.5878 113.4ZM87.9638 88.952C88.4758 88.952 89.1798 88.5893 90.0758 87.864C90.9718 87.096 91.9531 86.1573 93.0198 85.048C94.0865 83.896 95.0891 82.7013 96.0278 81.464C96.9665 80.184 97.7345 79.032 98.3318 78.008C98.9718 76.9413 99.2918 76.1307 99.2918 75.576C99.2918 75.1067 99.1425 74.7867 98.8438 74.616C98.5878 74.4453 98.2465 74.36 97.8198 74.36C97.1371 74.36 96.4118 74.616 95.6438 75.128C94.8758 75.5973 94.2571 76.0667 93.7878 76.536C93.2758 77.0053 92.6571 77.752 91.9318 78.776C91.2491 79.7573 90.5451 80.8453 89.8198 82.04C89.1371 83.2347 88.5611 84.3867 88.0918 85.496C87.6225 86.6053 87.3878 87.5013 87.3878 88.184C87.3878 88.696 87.5798 88.952 87.9638 88.952ZM103.365 91.896C103.195 91.896 103.195 91.7253 103.365 91.384C103.579 91 103.771 90.5733 103.941 90.104C104.155 89.6347 104.368 89.1227 104.581 88.568C105.008 87.544 105.477 86.392 105.989 85.112C106.501 83.832 106.992 82.5947 107.461 81.4C107.931 80.1627 108.336 79.1173 108.677 78.264C109.061 77.368 109.317 76.792 109.445 76.536C108.848 77.176 108.123 77.9867 107.269 78.968C106.459 79.9067 105.691 80.824 104.965 81.72C104.24 82.616 103.685 83.32 103.301 83.832C103.173 84.0027 103.067 84.088 102.981 84.088C102.896 84.088 102.853 83.9813 102.853 83.768C102.853 83.4267 102.96 83.1067 103.173 82.808C103.984 81.784 104.88 80.632 105.861 79.352C106.885 78.072 107.803 76.8987 108.613 75.832C109.424 74.7227 109.936 73.9973 110.149 73.656C110.619 73.5707 111.301 73.4427 112.197 73.272C113.136 73.1013 113.776 72.8667 114.117 72.568C114.245 72.44 114.373 72.376 114.501 72.376C114.587 72.376 114.629 72.4613 114.629 72.632C114.672 72.76 114.629 72.9093 114.501 73.08C114.245 73.336 113.861 73.8907 113.349 74.744C112.88 75.5973 112.347 76.5787 111.749 77.688C111.152 78.7973 110.576 79.864 110.021 80.888C110.448 80.248 111.003 79.5013 111.685 78.648C112.411 77.752 113.2 76.8987 114.053 76.088C114.907 75.2347 115.76 74.5307 116.613 73.976C117.509 73.4213 118.341 73.144 119.109 73.144C119.664 73.144 120.133 73.272 120.517 73.528C120.901 73.7413 121.2 74.1467 121.413 74.744C121.541 75.0427 121.605 75.384 121.605 75.768C121.605 76.4933 121.413 77.1973 121.029 77.88C120.688 78.52 120.432 79.0107 120.261 79.352C120.219 79.48 120.069 79.608 119.813 79.736C119.557 79.8213 119.451 79.7787 119.493 79.608C119.536 79.3947 119.557 79.1813 119.557 78.968C119.6 78.7547 119.621 78.52 119.621 78.264C119.621 77.5387 119.472 76.8773 119.173 76.28C118.917 75.6827 118.427 75.384 117.701 75.384C117.019 75.384 116.187 75.8107 115.205 76.664C114.224 77.5173 113.243 78.4987 112.261 79.608C111.024 81.0587 110.043 82.4453 109.317 83.768C108.592 85.048 107.995 86.3067 107.525 87.544C107.269 88.2267 107.013 88.9093 106.757 89.592C106.501 90.232 106.309 90.744 106.181 91.128C105.627 91.1707 105.072 91.2987 104.517 91.512C103.963 91.768 103.579 91.896 103.365 91.896ZM129.123 91.192C128.696 91.192 128.333 91.1067 128.035 90.936C127.736 90.7653 127.587 90.4453 127.587 89.976C127.587 89.3787 127.736 88.696 128.035 87.928C128.333 87.16 128.675 86.4133 129.059 85.688C129.443 84.92 129.784 84.3013 130.083 83.832C128.589 85.4107 127.032 86.904 125.411 88.312C124.6 88.9947 123.704 89.6347 122.723 90.232C121.741 90.8293 120.696 91.128 119.587 91.128C119.16 91.128 118.861 91 118.691 90.744C118.52 90.4453 118.435 90.104 118.435 89.72C118.435 89.5067 118.456 89.3573 118.499 89.272C118.712 87.608 119.245 85.88 120.099 84.088C120.952 82.296 121.997 80.6107 123.235 79.032C124.472 77.4533 125.731 76.1733 127.011 75.192C128.461 74.0827 130.061 73.528 131.811 73.528H139.171C139.384 73.528 139.491 73.6133 139.491 73.784C139.491 74.1253 139.299 74.296 138.915 74.296C138.488 74.296 138.061 74.5733 137.635 75.128C137.208 75.64 136.888 76.0667 136.675 76.408C136.376 76.8773 135.907 77.6667 135.267 78.776C134.627 79.8853 133.965 81.1013 133.283 82.424C132.643 83.704 132.088 84.8987 131.619 86.008C131.149 87.1173 130.915 87.928 130.915 88.44C130.915 89.0373 131.213 89.336 131.811 89.336C132.451 89.336 133.176 89.0373 133.987 88.44C134.797 87.8427 135.608 87.1173 136.419 86.264C137.272 85.368 138.04 84.4933 138.723 83.64C139.448 82.744 140.024 82.04 140.451 81.528C140.707 81.784 140.685 82.1467 140.387 82.616C140.131 83.0427 139.896 83.384 139.683 83.64C138.829 84.7493 137.848 85.9013 136.739 87.096C135.629 88.248 134.413 89.2293 133.091 90.04C131.811 90.808 130.488 91.192 129.123 91.192ZM122.211 88.952C122.723 88.952 123.427 88.5893 124.323 87.864C125.261 87.096 126.264 86.1573 127.331 85.048C128.397 83.896 129.4 82.7013 130.339 81.464C131.277 80.184 132.045 79.032 132.643 78.008C133.283 76.9413 133.603 76.1307 133.603 75.576C133.603 75.1067 133.453 74.7867 133.155 74.616C132.899 74.4453 132.557 74.36 132.131 74.36C131.448 74.36 130.701 74.616 129.891 75.128C129.123 75.5973 128.504 76.0667 128.035 76.536C127.523 77.0053 126.904 77.752 126.179 78.776C125.496 79.7573 124.813 80.8453 124.131 82.04C123.448 83.2347 122.872 84.3867 122.403 85.496C121.933 86.6053 121.699 87.5013 121.699 88.184C121.699 88.696 121.869 88.952 122.211 88.952ZM124.383 105.464C122.719 105.464 121.333 105.187 120.223 104.632C119.071 104.12 118.303 103.331 117.919 102.264C117.877 102.136 117.855 102.008 117.855 101.88C117.813 101.752 117.791 101.603 117.791 101.432C117.791 100.792 117.941 100.067 118.239 99.256C118.538 98.488 118.858 97.656 119.199 96.76C119.327 96.504 119.477 96.376 119.647 96.376C119.946 96.376 120.031 96.5893 119.903 97.016C119.605 97.656 119.455 98.3387 119.455 99.064C119.455 100.515 120.095 101.667 121.375 102.52C122.655 103.373 124.106 103.8 125.727 103.8C126.367 103.8 127.029 103.715 127.711 103.544C128.351 103.416 128.97 103.203 129.567 102.904C131.573 101.88 133.215 100.515 134.495 98.808C135.775 97.1013 136.906 95.3307 137.887 93.496C139.381 90.6373 140.661 87.6507 141.727 84.536C142.837 81.3787 144.01 78.264 145.247 75.192H143.775C143.562 75.192 143.327 75.2133 143.071 75.256C142.815 75.2987 142.581 75.3413 142.367 75.384L142.239 75.32C142.325 74.8507 142.73 74.4453 143.455 74.104C144.223 73.72 144.821 73.528 145.247 73.528H146.015C146.485 72.376 147.103 71.0107 147.871 69.432C148.682 67.8533 149.493 66.296 150.303 64.76C151.157 63.1813 151.903 61.8587 152.543 60.792C154.335 57.848 156.298 55.6293 158.431 54.136C160.565 52.6427 162.933 51.896 165.535 51.896C166.047 51.896 166.538 52.0667 167.007 52.408C167.519 52.7067 167.754 53.176 167.711 53.816L167.519 56.12C167.519 56.248 167.413 56.312 167.199 56.312C167.114 56.312 167.071 56.2907 167.071 56.248C166.943 55.48 166.538 54.8827 165.855 54.456C165.215 54.0293 164.447 53.816 163.551 53.816C162.911 53.816 162.229 53.944 161.503 54.2C160.309 54.584 159.157 55.288 158.047 56.312C156.981 57.2933 155.829 58.8507 154.591 60.984C153.994 62.0507 153.375 63.3093 152.735 64.76C152.095 66.2107 151.455 67.704 150.815 69.24C150.175 70.776 149.557 72.2053 148.959 73.528C149.983 73.528 150.986 73.5493 151.967 73.592C152.949 73.592 153.866 73.592 154.719 73.592C155.999 73.592 157.173 73.5493 158.239 73.464C159.306 73.3787 160.245 73.1867 161.055 72.888L161.951 72.568C162.037 72.5253 162.165 72.504 162.335 72.504C162.421 72.504 162.463 72.5467 162.463 72.632C162.463 72.76 162.378 72.9093 162.207 73.08C161.951 73.3787 161.503 74.104 160.863 75.256C160.223 76.408 159.541 77.688 158.815 79.096C158.133 80.4613 157.514 81.6987 156.959 82.808C156.319 83.96 155.786 85.0693 155.359 86.136C154.933 87.2027 154.719 87.9707 154.719 88.44C154.719 89.0373 155.018 89.336 155.615 89.336C156.17 89.336 156.895 88.9947 157.791 88.312C158.687 87.6293 159.605 86.8187 160.543 85.88C161.482 84.8987 162.293 84.0027 162.975 83.192C163.189 82.936 163.445 82.6373 163.743 82.296C164.042 81.912 164.234 81.6773 164.319 81.592C164.575 81.848 164.554 82.232 164.255 82.744C163.957 83.2133 163.701 83.5547 163.487 83.768C162.549 84.8773 161.546 86.008 160.479 87.16C159.413 88.312 158.261 89.272 157.023 90.04C155.786 90.808 154.421 91.192 152.927 91.192C152.501 91.192 152.138 91.1067 151.839 90.936C151.541 90.7653 151.391 90.4453 151.391 89.976C151.391 89.3787 151.541 88.6747 151.839 87.864C152.181 87.0533 152.543 86.2427 152.927 85.432C153.354 84.6213 153.674 83.96 153.887 83.448C154.186 82.8507 154.549 82.0827 154.975 81.144C155.445 80.1627 155.871 79.2453 156.255 78.392C156.682 77.496 156.981 76.8773 157.151 76.536C157.365 76.1093 157.493 75.7467 157.535 75.448C157.621 75.1067 157.685 74.8293 157.727 74.616C156.874 74.7867 155.85 74.936 154.655 75.064C153.461 75.1493 152.287 75.192 151.135 75.192C149.983 75.192 149.023 75.192 148.255 75.192C147.317 77.5387 146.421 79.7787 145.567 81.912C144.757 84.0027 143.861 86.0507 142.879 88.056C142.069 89.848 141.066 91.7467 139.871 93.752C138.677 95.7573 137.311 97.656 135.775 99.448C134.239 101.24 132.533 102.691 130.655 103.8C128.735 104.909 126.645 105.464 124.383 105.464ZM164.063 66.552C163.423 66.552 162.975 66.36 162.719 65.976C162.677 65.848 162.613 65.72 162.527 65.592C162.485 65.464 162.463 65.336 162.463 65.208C162.463 64.4827 162.805 63.9067 163.487 63.48C163.957 63.224 164.383 63.096 164.767 63.096C165.407 63.096 165.855 63.288 166.111 63.672C166.197 63.8 166.261 63.928 166.303 64.056C166.346 64.184 166.367 64.312 166.367 64.44C166.367 65.1653 166.026 65.7413 165.343 66.168C164.917 66.424 164.49 66.552 164.063 66.552ZM166.754 91.512C165.005 91.512 163.789 91.1707 163.106 90.488C162.424 89.8053 162.082 88.9733 162.082 87.992C162.082 86.7547 162.402 85.432 163.042 84.024C163.725 82.616 164.365 81.4213 164.962 80.44C165.645 79.416 166.562 78.3493 167.714 77.24C168.866 76.1307 170.125 75.192 171.49 74.424C172.856 73.656 174.178 73.272 175.458 73.272C176.568 73.272 177.336 73.5493 177.762 74.104C178.189 74.616 178.402 75.2347 178.402 75.96C178.402 77.2827 177.997 78.3707 177.186 79.224C176.418 80.0773 175.458 80.7813 174.306 81.336C173.154 81.848 172.045 82.2747 170.978 82.616C170.338 82.7867 169.592 82.9573 168.738 83.128C167.885 83.2987 167.074 83.384 166.306 83.384C166.008 84.152 165.773 84.8987 165.602 85.624C165.432 86.3493 165.346 87.0107 165.346 87.608C165.346 88.3333 165.517 88.9307 165.858 89.4C166.242 89.8693 166.861 90.104 167.714 90.104C168.056 90.104 168.461 90.0613 168.93 89.976C169.4 89.8907 169.912 89.7627 170.466 89.592C171.746 89.1653 173.005 88.4827 174.242 87.544C175.48 86.6053 176.61 85.6027 177.634 84.536C178.701 83.4267 179.512 82.5093 180.066 81.784C180.194 81.912 180.258 82.0613 180.258 82.232C180.258 82.4453 180.109 82.7867 179.81 83.256C178.957 84.4507 177.848 85.688 176.482 86.968C175.117 88.248 173.602 89.336 171.938 90.232C170.274 91.0853 168.546 91.512 166.754 91.512ZM166.818 82.104C167.373 82.1467 167.992 82.1467 168.674 82.104C169.4 82.0187 170.104 81.8693 170.786 81.656C172.536 81.144 173.794 80.3333 174.562 79.224C175.373 78.072 175.778 77.048 175.778 76.152C175.778 75.64 175.672 75.2133 175.458 74.872C175.245 74.5307 174.904 74.36 174.434 74.36C173.197 74.36 172.088 74.8293 171.106 75.768C170.125 76.664 169.272 77.7093 168.546 78.904C167.821 80.0987 167.245 81.1653 166.818 82.104Z" fill="white"/>
</svg>
