<svg width="370" height="219" viewBox="0 0 370 219" fill="none" xmlns="http://www.w3.org/2000/svg">
<path d="M109.842 93V67.872H115.314V88.14H124.89V93H109.842ZM142.753 93C141.793 93 140.989 92.7 140.341 92.1C139.717 91.5 139.321 90.696 139.153 89.688H138.937C138.649 90.912 138.013 91.848 137.029 92.496C136.045 93.12 134.833 93.432 133.393 93.432C131.497 93.432 130.045 92.928 129.037 91.92C128.029 90.912 127.525 89.58 127.525 87.924C127.525 85.932 128.245 84.456 129.685 83.496C131.149 82.512 133.129 82.02 135.625 82.02H138.613V80.832C138.613 79.92 138.373 79.2 137.893 78.672C137.413 78.12 136.609 77.844 135.481 77.844C134.425 77.844 133.585 78.072 132.961 78.528C132.337 78.984 131.821 79.5 131.413 80.076L128.245 77.268C129.013 76.14 129.973 75.264 131.125 74.64C132.301 73.992 133.885 73.668 135.877 73.668C138.565 73.668 140.581 74.256 141.925 75.432C143.269 76.608 143.941 78.324 143.941 80.58V88.86H145.705V93H142.753ZM135.373 89.724C136.261 89.724 137.017 89.532 137.641 89.148C138.289 88.764 138.613 88.14 138.613 87.276V85.044H136.021C133.933 85.044 132.889 85.752 132.889 87.168V87.708C132.889 88.404 133.105 88.92 133.537 89.256C133.969 89.568 134.581 89.724 135.373 89.724ZM149.281 93V74.1H154.609V78.204H154.789C154.885 77.676 155.053 77.172 155.293 76.692C155.533 76.188 155.845 75.744 156.229 75.36C156.637 74.976 157.117 74.676 157.669 74.46C158.221 74.22 158.869 74.1 159.613 74.1H160.549V79.068H159.217C157.657 79.068 156.493 79.272 155.725 79.68C154.981 80.088 154.609 80.844 154.609 81.948V93H149.281ZM177.311 93C176.351 93 175.547 92.7 174.899 92.1C174.275 91.5 173.879 90.696 173.711 89.688H173.495C173.207 90.912 172.571 91.848 171.587 92.496C170.603 93.12 169.391 93.432 167.951 93.432C166.055 93.432 164.603 92.928 163.595 91.92C162.587 90.912 162.083 89.58 162.083 87.924C162.083 85.932 162.803 84.456 164.243 83.496C165.707 82.512 167.687 82.02 170.183 82.02H173.171V80.832C173.171 79.92 172.931 79.2 172.451 78.672C171.971 78.12 171.167 77.844 170.039 77.844C168.983 77.844 168.143 78.072 167.519 78.528C166.895 78.984 166.379 79.5 165.971 80.076L162.803 77.268C163.571 76.14 164.531 75.264 165.683 74.64C166.859 73.992 168.443 73.668 170.435 73.668C173.123 73.668 175.139 74.256 176.483 75.432C177.827 76.608 178.499 78.324 178.499 80.58V88.86H180.263V93H177.311ZM169.931 89.724C170.819 89.724 171.575 89.532 172.199 89.148C172.847 88.764 173.171 88.14 173.171 87.276V85.044H170.579C168.491 85.044 167.447 85.752 167.447 87.168V87.708C167.447 88.404 167.663 88.92 168.095 89.256C168.527 89.568 169.139 89.724 169.931 89.724ZM201.383 82.056L198.107 86.016V93H192.635V67.872H198.107V79.824H198.323L201.887 74.964L207.539 67.872H213.731L205.271 78.204L214.487 93H208.043L201.383 82.056ZM227.871 89.832H227.691C227.523 90.312 227.295 90.768 227.007 91.2C226.743 91.632 226.395 92.016 225.963 92.352C225.531 92.688 225.015 92.952 224.415 93.144C223.839 93.336 223.167 93.432 222.399 93.432C220.455 93.432 218.979 92.796 217.971 91.524C216.987 90.228 216.495 88.38 216.495 85.98V74.1H221.823V85.512C221.823 86.664 222.027 87.552 222.435 88.176C222.843 88.8 223.539 89.112 224.523 89.112C224.931 89.112 225.339 89.052 225.747 88.932C226.155 88.812 226.515 88.644 226.827 88.428C227.139 88.188 227.391 87.9 227.583 87.564C227.775 87.228 227.871 86.832 227.871 86.376V74.1H233.199V93H227.871V89.832ZM245.788 93.432C244.372 93.432 243.112 93.204 242.008 92.748C240.904 92.268 239.98 91.608 239.236 90.768C238.492 89.904 237.928 88.86 237.544 87.636C237.16 86.412 236.968 85.044 236.968 83.532C236.968 82.02 237.16 80.664 237.544 79.464C237.928 78.24 238.492 77.196 239.236 76.332C239.98 75.468 240.904 74.808 242.008 74.352C243.112 73.896 244.372 73.668 245.788 73.668C247.708 73.668 249.304 74.1 250.576 74.964C251.872 75.828 252.796 77.04 253.348 78.6L249.028 80.472C248.86 79.752 248.512 79.14 247.984 78.636C247.456 78.132 246.724 77.88 245.788 77.88C244.708 77.88 243.892 78.24 243.34 78.96C242.788 79.656 242.512 80.604 242.512 81.804V85.332C242.512 86.532 242.788 87.48 243.34 88.176C243.892 88.872 244.708 89.22 245.788 89.22C246.748 89.22 247.504 88.968 248.056 88.464C248.632 87.936 249.052 87.252 249.316 86.412L253.456 88.212C252.832 90.012 251.86 91.332 250.54 92.172C249.244 93.012 247.66 93.432 245.788 93.432ZM256.754 66.36H262.082V77.304H262.298C262.634 76.32 263.222 75.468 264.062 74.748C264.902 74.028 266.066 73.668 267.554 73.668C269.498 73.668 270.962 74.316 271.946 75.612C272.954 76.908 273.458 78.756 273.458 81.156V93H268.13V81.588C268.13 80.364 267.938 79.464 267.554 78.888C267.17 78.288 266.486 77.988 265.502 77.988C265.07 77.988 264.65 78.048 264.242 78.168C263.834 78.264 263.462 78.432 263.126 78.672C262.814 78.912 262.562 79.212 262.37 79.572C262.178 79.908 262.082 80.304 262.082 80.76V93H256.754V66.36ZM286.083 93.432C284.643 93.432 283.359 93.204 282.231 92.748C281.103 92.268 280.143 91.608 279.351 90.768C278.583 89.904 277.995 88.86 277.587 87.636C277.203 86.412 277.011 85.044 277.011 83.532C277.011 82.044 277.203 80.7 277.587 79.5C277.971 78.276 278.535 77.232 279.279 76.368C280.047 75.504 280.983 74.844 282.087 74.388C283.191 73.908 284.451 73.668 285.867 73.668C287.427 73.668 288.759 73.932 289.863 74.46C290.991 74.988 291.903 75.696 292.599 76.584C293.319 77.472 293.835 78.504 294.147 79.68C294.483 80.832 294.651 82.044 294.651 83.316V84.9H282.519V85.188C282.519 86.436 282.855 87.432 283.527 88.176C284.199 88.896 285.255 89.256 286.695 89.256C287.799 89.256 288.699 89.04 289.395 88.608C290.091 88.152 290.739 87.612 291.339 86.988L294.003 90.3C293.163 91.284 292.059 92.052 290.691 92.604C289.347 93.156 287.811 93.432 286.083 93.432ZM285.975 77.592C284.895 77.592 284.043 77.952 283.419 78.672C282.819 79.368 282.519 80.304 282.519 81.48V81.768H289.143V81.444C289.143 80.292 288.879 79.368 288.351 78.672C287.847 77.952 287.055 77.592 285.975 77.592Z" fill="black"/>
<path d="M55.6178 145.432C54.2951 145.432 53.0364 145.048 51.8418 144.28C50.6471 143.555 49.7511 142.424 49.1538 140.888C48.9404 140.333 48.7911 139.736 48.7057 139.096C48.6631 138.456 48.6418 137.837 48.6418 137.24V136.408C48.6418 136.109 48.6631 135.832 48.7057 135.576C48.7911 135.32 48.9618 135.192 49.2178 135.192C49.3031 135.192 49.3458 135.235 49.3458 135.32C49.3458 135.576 49.3244 135.832 49.2818 136.088C49.2818 136.344 49.2818 136.6 49.2818 136.856C49.2818 138.861 49.7724 140.397 50.7538 141.464C51.7778 142.488 53.0364 143 54.5298 143C56.0231 143 57.4738 142.573 58.8818 141.72C60.2898 140.824 61.5911 139.715 62.7858 138.392C63.4684 137.667 64.2364 136.579 65.0898 135.128C65.9858 133.635 66.9031 131.971 67.8418 130.136C68.8231 128.259 69.8044 126.339 70.7858 124.376C71.7671 122.371 72.7058 120.451 73.6018 118.616C74.4978 116.739 75.3084 115.096 76.0338 113.688C76.7164 112.365 77.6338 111.32 78.7858 110.552C79.9378 109.784 80.9191 109.251 81.7298 108.952C81.4311 108.952 80.7911 108.973 79.8098 109.016C78.8711 109.059 77.8684 109.101 76.8018 109.144C75.7351 109.187 74.8818 109.229 74.2418 109.272C72.6204 109.357 70.9778 109.549 69.3138 109.848C67.6498 110.147 66.1778 110.552 64.8978 111.064C63.6178 111.576 62.7004 112.237 62.1458 113.048C61.7618 113.603 61.5698 114.243 61.5698 114.968C61.5698 116.419 62.2098 117.464 63.4897 118.104C63.5751 118.189 63.6178 118.232 63.6178 118.232C63.6178 118.36 63.5111 118.488 63.2978 118.616C63.0844 118.701 62.8711 118.723 62.6578 118.68C62.3164 118.467 61.8898 118.125 61.3778 117.656C60.9084 117.144 60.4604 116.611 60.0338 116.056C59.6498 115.501 59.3938 115.032 59.2658 114.648C59.0524 114.008 58.9458 113.496 58.9458 113.112C58.9458 112.088 59.3298 111.256 60.0978 110.616C60.8658 109.933 61.8684 109.421 63.1058 109.08C64.3431 108.696 65.6658 108.44 67.0738 108.312C68.4818 108.141 69.8471 108.035 71.1698 107.992C72.4924 107.949 73.6231 107.928 74.5618 107.928C76.7378 107.928 78.6791 107.928 80.3857 107.928C82.1351 107.885 83.7351 107.864 85.1858 107.864C86.6791 107.864 88.1084 107.885 89.4738 107.928C90.8818 107.971 92.3538 108.035 93.8898 108.12C94.9991 108.163 95.7458 108.376 96.1298 108.76C96.5564 109.144 96.7698 109.613 96.7698 110.168C96.7698 110.893 96.5351 111.683 96.0658 112.536C95.5964 113.389 95.1698 114.179 94.7858 114.904C94.6151 115.245 94.3378 115.501 93.9538 115.672C93.5698 115.8 93.4204 115.672 93.5058 115.288C93.5911 114.904 93.6764 114.499 93.7618 114.072C93.8471 113.603 93.8898 113.155 93.8898 112.728C93.8898 111.96 93.7404 111.277 93.4418 110.68C93.1431 110.04 92.6311 109.592 91.9058 109.336C91.4791 109.165 90.9671 109.059 90.3698 109.016C89.7724 108.931 89.1324 108.888 88.4498 108.888C87.1698 108.888 85.8898 109.016 84.6098 109.272C83.3298 109.528 82.3271 109.933 81.6018 110.488C80.7058 111.171 79.7884 112.28 78.8498 113.816C77.9538 115.352 77.1004 116.995 76.2898 118.744C75.4791 120.493 74.7538 122.029 74.1138 123.352C74.0711 123.437 74.0498 123.565 74.0498 123.736C74.0498 123.949 74.2418 124.056 74.6258 124.056C75.2231 124.056 76.0551 124.056 77.1218 124.056C78.2311 124.056 79.3831 124.077 80.5778 124.12C81.7724 124.12 82.7964 124.12 83.6498 124.12C84.5884 124.12 85.3351 124.184 85.8898 124.312C86.4444 124.397 86.7218 124.675 86.7218 125.144C86.7218 125.315 86.6151 125.656 86.4018 126.168C86.1031 126.851 85.7618 127.448 85.3778 127.96C85.0364 128.429 84.7591 128.92 84.5458 129.432C84.5031 129.603 84.3111 129.752 83.9698 129.88C83.6284 130.008 83.5004 129.987 83.5858 129.816C83.7564 129.432 83.9271 128.963 84.0978 128.408C84.3111 127.811 84.4178 127.299 84.4178 126.872C84.4178 126.189 84.1191 125.848 83.5218 125.848H73.5378C73.1538 125.848 72.8551 126.019 72.6418 126.36C71.4044 128.835 70.0604 131.48 68.6098 134.296C67.2018 137.112 65.5591 139.523 63.6818 141.528C62.6151 142.68 61.3778 143.619 59.9698 144.344C58.5618 145.069 57.1111 145.432 55.6178 145.432ZM87.0438 143.128C86.3611 143.128 85.7424 143 85.1878 142.744C84.6758 142.445 84.4198 141.827 84.4198 140.888C84.4198 139.395 84.8038 137.901 85.5718 136.408C86.3398 134.872 87.1291 133.528 87.9398 132.376C88.6651 131.395 89.4758 130.477 90.3718 129.624C91.3104 128.728 92.3131 127.96 93.3798 127.32C94.0624 126.893 94.9798 126.445 96.1318 125.976C97.3264 125.464 98.3291 125.208 99.1398 125.208C99.8224 125.208 100.42 125.4 100.932 125.784C101.444 126.125 101.7 126.765 101.7 127.704C101.7 129.155 101.316 130.648 100.548 132.184C99.8224 133.677 99.0544 135 98.2438 136.152C97.8598 136.664 97.4758 137.155 97.0918 137.624C96.7078 138.051 96.2811 138.499 95.8118 138.968C97.3904 138.968 98.8411 138.52 100.164 137.624C101.486 136.685 102.638 135.555 103.62 134.232L103.748 134.104C103.876 134.104 103.94 134.232 103.94 134.488C103.94 134.787 103.854 135.064 103.684 135.32C102.83 136.515 101.764 137.581 100.484 138.52C99.2038 139.416 97.7531 139.864 96.1318 139.864C95.9611 139.864 95.7904 139.864 95.6198 139.864C95.4491 139.864 95.2784 139.843 95.1078 139.8C92.7184 142.019 90.0304 143.128 87.0438 143.128ZM88.7078 142.04C89.3051 142.04 89.9451 141.827 90.6278 141.4C91.3531 140.973 91.9078 140.568 92.2917 140.184C93.0171 139.459 93.6784 138.691 94.2758 137.88C94.8731 137.027 95.4278 136.173 95.9398 135.32C96.5371 134.296 97.1344 133.08 97.7318 131.672C98.3291 130.264 98.6278 128.941 98.6278 127.704C98.6278 126.723 98.2864 126.232 97.6038 126.232C97.0491 126.232 96.3664 126.467 95.5558 126.936C94.7878 127.405 94.2118 127.832 93.8278 128.216C92.3771 129.709 91.1611 131.331 90.1798 133.08C89.6251 134.061 89.0278 135.213 88.3878 136.536C87.7478 137.859 87.4278 139.075 87.4278 140.184C87.4278 140.355 87.4278 140.525 87.4278 140.696C87.4704 140.824 87.5131 140.973 87.5558 141.144C87.7264 141.741 88.1104 142.04 88.7078 142.04ZM105.517 143.192C105.091 143.192 104.728 143.107 104.429 142.936C104.131 142.765 103.981 142.445 103.981 141.976C103.981 141.379 104.131 140.675 104.429 139.864C104.771 139.053 105.133 138.243 105.517 137.432C105.901 136.621 106.221 135.96 106.477 135.448C106.691 135.064 106.968 134.467 107.309 133.656C107.693 132.803 108.077 131.928 108.461 131.032C108.888 130.093 109.229 129.304 109.485 128.664C109.784 128.024 109.933 127.704 109.933 127.704C109.549 128.131 109.037 128.728 108.397 129.496C107.8 130.264 107.139 131.075 106.413 131.928C105.731 132.739 105.091 133.507 104.493 134.232C103.939 134.957 103.533 135.491 103.277 135.832C103.149 136.003 103.043 136.088 102.957 136.088C102.872 136.088 102.829 135.981 102.829 135.768C102.829 135.427 102.936 135.107 103.149 134.808C103.661 134.168 104.28 133.4 105.005 132.504C105.731 131.565 106.456 130.627 107.181 129.688C107.949 128.749 108.611 127.917 109.165 127.192C108.824 127.192 108.376 127.213 107.821 127.256C107.309 127.299 106.84 127.363 106.413 127.448C105.987 127.491 105.752 127.512 105.709 127.512C105.496 127.512 105.517 127.341 105.773 127C106.029 126.659 106.371 126.317 106.797 125.976C107.224 125.635 107.544 125.464 107.757 125.464C107.8 125.464 108.141 125.485 108.781 125.528C109.421 125.528 109.891 125.528 110.189 125.528C111.043 124.376 111.875 123.053 112.685 121.56C113.539 120.067 114.371 118.424 115.181 116.632C115.523 116.589 116.099 116.355 116.909 115.928C117.763 115.459 118.424 114.989 118.893 114.52C119.107 114.307 119.277 114.2 119.405 114.2C119.661 114.2 119.661 114.371 119.405 114.712C119.107 115.053 118.595 115.779 117.869 116.888C117.144 117.955 116.333 119.256 115.437 120.792C114.541 122.285 113.688 123.864 112.877 125.528H118.061C118.531 125.528 118.765 125.592 118.765 125.72C118.765 125.891 118.445 126.061 117.805 126.232C117.08 126.445 116.312 126.573 115.501 126.616C114.733 126.659 114.008 126.744 113.325 126.872C112.685 127 112.216 127.277 111.917 127.704C111.661 128.003 111.299 128.643 110.829 129.624C110.36 130.605 109.848 131.736 109.293 133.016C108.781 134.253 108.333 135.512 107.949 136.792C107.565 138.029 107.331 139.075 107.245 139.928V140.184C107.245 140.525 107.352 140.803 107.565 141.016C107.779 141.229 107.992 141.336 108.205 141.336C108.76 141.336 109.464 140.995 110.317 140.312C111.213 139.629 112.131 138.819 113.069 137.88C114.008 136.899 114.819 136.003 115.501 135.192C115.8 134.851 116.056 134.531 116.269 134.232C116.525 133.933 116.675 133.741 116.717 133.656C116.803 133.827 116.845 133.955 116.845 134.04C116.845 134.296 116.76 134.573 116.589 134.872C116.461 135.171 116.312 135.427 116.141 135.64C115.331 136.707 114.349 137.837 113.197 139.032C112.045 140.184 110.808 141.165 109.485 141.976C108.205 142.787 106.883 143.192 105.517 143.192ZM116.669 143.128C115.986 143.128 115.367 143 114.813 142.744C114.301 142.445 114.045 141.827 114.045 140.888C114.045 139.395 114.429 137.901 115.197 136.408C115.965 134.872 116.754 133.528 117.565 132.376C118.29 131.395 119.101 130.477 119.997 129.624C120.935 128.728 121.938 127.96 123.005 127.32C123.687 126.893 124.605 126.445 125.757 125.976C126.951 125.464 127.954 125.208 128.765 125.208C129.447 125.208 130.045 125.4 130.557 125.784C131.069 126.125 131.325 126.765 131.325 127.704C131.325 129.155 130.941 130.648 130.173 132.184C129.447 133.677 128.679 135 127.869 136.152C127.485 136.664 127.101 137.155 126.717 137.624C126.333 138.051 125.906 138.499 125.437 138.968C127.015 138.968 128.466 138.52 129.789 137.624C131.111 136.685 132.263 135.555 133.245 134.232L133.373 134.104C133.501 134.104 133.565 134.232 133.565 134.488C133.565 134.787 133.479 135.064 133.309 135.32C132.455 136.515 131.389 137.581 130.109 138.52C128.829 139.416 127.378 139.864 125.757 139.864C125.586 139.864 125.415 139.864 125.245 139.864C125.074 139.864 124.903 139.843 124.733 139.8C122.343 142.019 119.655 143.128 116.669 143.128ZM118.333 142.04C118.93 142.04 119.57 141.827 120.253 141.4C120.978 140.973 121.533 140.568 121.917 140.184C122.642 139.459 123.303 138.691 123.901 137.88C124.498 137.027 125.053 136.173 125.565 135.32C126.162 134.296 126.759 133.08 127.357 131.672C127.954 130.264 128.253 128.941 128.253 127.704C128.253 126.723 127.911 126.232 127.229 126.232C126.674 126.232 125.991 126.467 125.181 126.936C124.413 127.405 123.837 127.832 123.453 128.216C122.002 129.709 120.786 131.331 119.805 133.08C119.25 134.061 118.653 135.213 118.013 136.536C117.373 137.859 117.053 139.075 117.053 140.184C117.053 140.355 117.053 140.525 117.053 140.696C117.095 140.824 117.138 140.973 117.181 141.144C117.351 141.741 117.735 142.04 118.333 142.04ZM121.126 165.4C119.505 165.4 117.948 165.016 116.454 164.248C114.918 163.523 113.788 162.392 113.062 160.856C112.764 160.301 112.572 159.704 112.486 159.064C112.401 158.467 112.358 157.869 112.358 157.272V156.632C112.358 156.291 112.401 155.971 112.486 155.672C112.572 155.373 112.806 155.224 113.19 155.224C113.276 155.224 113.318 155.267 113.318 155.352C113.318 155.608 113.297 155.864 113.254 156.12C113.212 156.376 113.19 156.653 113.19 156.952C113.19 158.915 113.83 160.408 115.11 161.432C116.348 162.456 117.905 162.968 119.782 162.968C120.55 162.968 121.34 162.883 122.15 162.712C122.961 162.541 123.708 162.307 124.39 162.008C127.121 160.856 129.489 159.192 131.494 157.016C133.542 154.84 135.313 152.387 136.806 149.656C138.342 146.925 139.686 144.131 140.838 141.272C142.033 138.371 143.142 135.64 144.166 133.08C143.27 134.531 142.289 135.832 141.222 136.984C140.156 138.093 138.961 139.203 137.638 140.312C136.828 140.995 135.932 141.635 134.95 142.232C134.012 142.829 132.988 143.128 131.878 143.128C131.452 143.128 131.153 143 130.982 142.744C130.812 142.445 130.726 142.104 130.726 141.72V141.272C130.94 139.608 131.473 137.88 132.326 136.088C133.222 134.296 134.289 132.611 135.526 131.032C136.764 129.453 138.022 128.173 139.302 127.192C140.753 126.083 142.353 125.528 144.102 125.528H151.462C151.676 125.528 151.782 125.613 151.782 125.784C151.782 126.125 151.59 126.296 151.206 126.296C150.737 126.296 150.289 126.488 149.862 126.872C149.436 127.256 149.116 127.619 148.902 127.96C148.476 128.643 147.921 129.688 147.238 131.096C146.556 132.504 145.809 134.125 144.998 135.96C144.188 137.752 143.377 139.587 142.566 141.464C141.756 143.299 141.009 145.027 140.326 146.648C139.302 149.08 138.129 151.448 136.806 153.752C135.526 156.099 133.99 158.189 132.198 160.024C130.449 161.901 128.358 163.373 125.926 164.44C124.476 165.08 122.876 165.4 121.126 165.4ZM134.502 140.952C135.014 140.952 135.718 140.589 136.614 139.864C137.51 139.096 138.492 138.157 139.558 137.048C140.625 135.896 141.628 134.701 142.566 133.464C143.505 132.184 144.273 131.032 144.87 130.008C145.51 128.941 145.83 128.131 145.83 127.576C145.83 127.107 145.681 126.787 145.382 126.616C145.126 126.445 144.785 126.36 144.358 126.36C143.676 126.36 142.95 126.616 142.182 127.128C141.414 127.597 140.796 128.067 140.326 128.536C139.814 129.005 139.196 129.752 138.47 130.776C137.788 131.757 137.084 132.845 136.358 134.04C135.676 135.235 135.1 136.387 134.63 137.496C134.161 138.605 133.926 139.501 133.926 140.184C133.926 140.696 134.118 140.952 134.502 140.952ZM149.904 143.896C149.733 143.896 149.733 143.725 149.904 143.384C150.117 143 150.309 142.573 150.48 142.104C150.693 141.635 150.906 141.123 151.12 140.568C151.546 139.544 152.016 138.392 152.528 137.112C153.04 135.832 153.53 134.595 154 133.4C154.469 132.163 154.874 131.117 155.216 130.264C155.6 129.368 155.856 128.792 155.984 128.536C155.386 129.176 154.661 129.987 153.808 130.968C152.997 131.907 152.229 132.824 151.504 133.72C150.778 134.616 150.224 135.32 149.84 135.832C149.712 136.003 149.605 136.088 149.52 136.088C149.434 136.088 149.392 135.981 149.392 135.768C149.392 135.427 149.498 135.107 149.712 134.808C150.522 133.784 151.418 132.632 152.4 131.352C153.424 130.072 154.341 128.899 155.152 127.832C155.962 126.723 156.474 125.997 156.688 125.656C157.157 125.571 157.84 125.443 158.736 125.272C159.674 125.101 160.314 124.867 160.656 124.568C160.784 124.44 160.912 124.376 161.04 124.376C161.125 124.376 161.168 124.461 161.168 124.632C161.21 124.76 161.168 124.909 161.04 125.08C160.784 125.336 160.4 125.891 159.888 126.744C159.418 127.597 158.885 128.579 158.288 129.688C157.69 130.797 157.114 131.864 156.56 132.888C156.986 132.248 157.541 131.501 158.224 130.648C158.949 129.752 159.738 128.899 160.592 128.088C161.445 127.235 162.298 126.531 163.152 125.976C164.048 125.421 164.88 125.144 165.648 125.144C166.202 125.144 166.672 125.272 167.056 125.528C167.44 125.741 167.738 126.147 167.952 126.744C168.08 127.043 168.144 127.384 168.144 127.768C168.144 128.493 167.952 129.197 167.568 129.88C167.226 130.52 166.97 131.011 166.8 131.352C166.757 131.48 166.608 131.608 166.352 131.736C166.096 131.821 165.989 131.779 166.032 131.608C166.074 131.395 166.096 131.181 166.096 130.968C166.138 130.755 166.16 130.52 166.16 130.264C166.16 129.539 166.01 128.877 165.712 128.28C165.456 127.683 164.965 127.384 164.24 127.384C163.557 127.384 162.725 127.811 161.744 128.664C160.762 129.517 159.781 130.499 158.8 131.608C157.562 133.059 156.581 134.445 155.856 135.768C155.13 137.048 154.533 138.307 154.064 139.544C153.808 140.227 153.552 140.909 153.296 141.592C153.04 142.232 152.848 142.744 152.72 143.128C152.165 143.171 151.61 143.299 151.056 143.512C150.501 143.768 150.117 143.896 149.904 143.896ZM175.661 143.192C175.235 143.192 174.872 143.107 174.573 142.936C174.275 142.765 174.125 142.445 174.125 141.976C174.125 141.379 174.275 140.696 174.573 139.928C174.872 139.16 175.213 138.413 175.597 137.688C175.981 136.92 176.323 136.301 176.621 135.832C175.128 137.411 173.571 138.904 171.949 140.312C171.139 140.995 170.243 141.635 169.261 142.232C168.28 142.829 167.235 143.128 166.125 143.128C165.699 143.128 165.4 143 165.229 142.744C165.059 142.445 164.973 142.104 164.973 141.72C164.973 141.507 164.995 141.357 165.037 141.272C165.251 139.608 165.784 137.88 166.637 136.088C167.491 134.296 168.536 132.611 169.773 131.032C171.011 129.453 172.269 128.173 173.549 127.192C175 126.083 176.6 125.528 178.349 125.528H185.709C185.923 125.528 186.029 125.613 186.029 125.784C186.029 126.125 185.837 126.296 185.453 126.296C185.027 126.296 184.6 126.573 184.173 127.128C183.747 127.64 183.427 128.067 183.213 128.408C182.915 128.877 182.445 129.667 181.805 130.776C181.165 131.885 180.504 133.101 179.821 134.424C179.181 135.704 178.627 136.899 178.157 138.008C177.688 139.117 177.453 139.928 177.453 140.44C177.453 141.037 177.752 141.336 178.349 141.336C178.989 141.336 179.715 141.037 180.525 140.44C181.336 139.843 182.147 139.117 182.957 138.264C183.811 137.368 184.579 136.493 185.261 135.64C185.987 134.744 186.563 134.04 186.989 133.528C187.245 133.784 187.224 134.147 186.925 134.616C186.669 135.043 186.435 135.384 186.221 135.64C185.368 136.749 184.387 137.901 183.277 139.096C182.168 140.248 180.952 141.229 179.629 142.04C178.349 142.808 177.027 143.192 175.661 143.192ZM168.749 140.952C169.261 140.952 169.965 140.589 170.861 139.864C171.8 139.096 172.803 138.157 173.869 137.048C174.936 135.896 175.939 134.701 176.877 133.464C177.816 132.184 178.584 131.032 179.181 130.008C179.821 128.941 180.141 128.131 180.141 127.576C180.141 127.107 179.992 126.787 179.693 126.616C179.437 126.445 179.096 126.36 178.669 126.36C177.987 126.36 177.24 126.616 176.429 127.128C175.661 127.597 175.043 128.067 174.573 128.536C174.061 129.005 173.443 129.752 172.717 130.776C172.035 131.757 171.352 132.845 170.669 134.04C169.987 135.235 169.411 136.387 168.941 137.496C168.472 138.605 168.237 139.501 168.237 140.184C168.237 140.696 168.408 140.952 168.749 140.952ZM170.922 157.464C169.258 157.464 167.871 157.187 166.762 156.632C165.61 156.12 164.842 155.331 164.458 154.264C164.415 154.136 164.394 154.008 164.394 153.88C164.351 153.752 164.33 153.603 164.33 153.432C164.33 152.792 164.479 152.067 164.778 151.256C165.076 150.488 165.396 149.656 165.738 148.76C165.866 148.504 166.015 148.376 166.186 148.376C166.484 148.376 166.57 148.589 166.442 149.016C166.143 149.656 165.994 150.339 165.994 151.064C165.994 152.515 166.634 153.667 167.914 154.52C169.194 155.373 170.644 155.8 172.266 155.8C172.906 155.8 173.567 155.715 174.25 155.544C174.89 155.416 175.508 155.203 176.106 154.904C178.111 153.88 179.754 152.515 181.034 150.808C182.314 149.101 183.444 147.331 184.426 145.496C185.919 142.637 187.199 139.651 188.266 136.536C189.375 133.379 190.548 130.264 191.786 127.192H190.314C190.1 127.192 189.866 127.213 189.61 127.256C189.354 127.299 189.119 127.341 188.906 127.384L188.778 127.32C188.863 126.851 189.268 126.445 189.994 126.104C190.762 125.72 191.359 125.528 191.786 125.528H192.554C193.023 124.376 193.642 123.011 194.41 121.432C195.22 119.853 196.031 118.296 196.842 116.76C197.695 115.181 198.442 113.859 199.082 112.792C200.874 109.848 202.836 107.629 204.97 106.136C207.103 104.643 209.471 103.896 212.074 103.896C212.586 103.896 213.076 104.067 213.546 104.408C214.058 104.707 214.292 105.176 214.25 105.816L214.058 108.12C214.058 108.248 213.951 108.312 213.738 108.312C213.652 108.312 213.61 108.291 213.61 108.248C213.482 107.48 213.076 106.883 212.394 106.456C211.754 106.029 210.986 105.816 210.09 105.816C209.45 105.816 208.767 105.944 208.042 106.2C206.847 106.584 205.695 107.288 204.586 108.312C203.519 109.293 202.367 110.851 201.13 112.984C200.532 114.051 199.914 115.309 199.274 116.76C198.634 118.211 197.994 119.704 197.354 121.24C196.714 122.776 196.095 124.205 195.498 125.528C196.522 125.528 197.524 125.549 198.506 125.592C199.487 125.592 200.404 125.592 201.258 125.592C202.538 125.592 203.711 125.549 204.778 125.464C205.844 125.379 206.783 125.187 207.594 124.888L208.49 124.568C208.575 124.525 208.703 124.504 208.874 124.504C208.959 124.504 209.002 124.547 209.002 124.632C209.002 124.76 208.916 124.909 208.746 125.08C208.49 125.379 208.042 126.104 207.402 127.256C206.762 128.408 206.079 129.688 205.354 131.096C204.671 132.461 204.052 133.699 203.498 134.808C202.858 135.96 202.324 137.069 201.898 138.136C201.471 139.203 201.258 139.971 201.258 140.44C201.258 141.037 201.556 141.336 202.154 141.336C202.708 141.336 203.434 140.995 204.33 140.312C205.226 139.629 206.143 138.819 207.082 137.88C208.02 136.899 208.831 136.003 209.514 135.192C209.727 134.936 209.983 134.637 210.282 134.296C210.58 133.912 210.772 133.677 210.858 133.592C211.114 133.848 211.092 134.232 210.794 134.744C210.495 135.213 210.239 135.555 210.026 135.768C209.087 136.877 208.084 138.008 207.018 139.16C205.951 140.312 204.799 141.272 203.562 142.04C202.324 142.808 200.959 143.192 199.466 143.192C199.039 143.192 198.676 143.107 198.378 142.936C198.079 142.765 197.93 142.445 197.93 141.976C197.93 141.379 198.079 140.675 198.378 139.864C198.719 139.053 199.082 138.243 199.466 137.432C199.892 136.621 200.212 135.96 200.426 135.448C200.724 134.851 201.087 134.083 201.514 133.144C201.983 132.163 202.41 131.245 202.794 130.392C203.22 129.496 203.519 128.877 203.69 128.536C203.903 128.109 204.031 127.747 204.074 127.448C204.159 127.107 204.223 126.829 204.266 126.616C203.412 126.787 202.388 126.936 201.194 127.064C199.999 127.149 198.826 127.192 197.674 127.192C196.522 127.192 195.562 127.192 194.794 127.192C193.855 129.539 192.959 131.779 192.106 133.912C191.295 136.003 190.399 138.051 189.418 140.056C188.607 141.848 187.604 143.747 186.41 145.752C185.215 147.757 183.85 149.656 182.314 151.448C180.778 153.24 179.071 154.691 177.194 155.8C175.274 156.909 173.183 157.464 170.922 157.464ZM210.602 118.552C209.962 118.552 209.514 118.36 209.258 117.976C209.215 117.848 209.151 117.72 209.066 117.592C209.023 117.464 209.002 117.336 209.002 117.208C209.002 116.483 209.343 115.907 210.026 115.48C210.495 115.224 210.922 115.096 211.306 115.096C211.946 115.096 212.394 115.288 212.65 115.672C212.735 115.8 212.799 115.928 212.842 116.056C212.884 116.184 212.906 116.312 212.906 116.44C212.906 117.165 212.564 117.741 211.882 118.168C211.455 118.424 211.028 118.552 210.602 118.552ZM213.293 143.512C211.543 143.512 210.327 143.171 209.645 142.488C208.962 141.805 208.621 140.973 208.621 139.992C208.621 138.755 208.941 137.432 209.581 136.024C210.263 134.616 210.903 133.421 211.501 132.44C212.183 131.416 213.101 130.349 214.253 129.24C215.405 128.131 216.663 127.192 218.029 126.424C219.394 125.656 220.717 125.272 221.997 125.272C223.106 125.272 223.874 125.549 224.301 126.104C224.727 126.616 224.941 127.235 224.941 127.96C224.941 129.283 224.535 130.371 223.725 131.224C222.957 132.077 221.997 132.781 220.845 133.336C219.693 133.848 218.583 134.275 217.517 134.616C216.877 134.787 216.13 134.957 215.277 135.128C214.423 135.299 213.613 135.384 212.845 135.384C212.546 136.152 212.311 136.899 212.141 137.624C211.97 138.349 211.885 139.011 211.885 139.608C211.885 140.333 212.055 140.931 212.397 141.4C212.781 141.869 213.399 142.104 214.253 142.104C214.594 142.104 214.999 142.061 215.469 141.976C215.938 141.891 216.45 141.763 217.005 141.592C218.285 141.165 219.543 140.483 220.781 139.544C222.018 138.605 223.149 137.603 224.173 136.536C225.239 135.427 226.05 134.509 226.605 133.784C226.733 133.912 226.797 134.061 226.797 134.232C226.797 134.445 226.647 134.787 226.349 135.256C225.495 136.451 224.386 137.688 223.021 138.968C221.655 140.248 220.141 141.336 218.477 142.232C216.813 143.085 215.085 143.512 213.293 143.512ZM213.357 134.104C213.911 134.147 214.53 134.147 215.213 134.104C215.938 134.019 216.642 133.869 217.325 133.656C219.074 133.144 220.333 132.333 221.101 131.224C221.911 130.072 222.317 129.048 222.317 128.152C222.317 127.64 222.21 127.213 221.997 126.872C221.783 126.531 221.442 126.36 220.973 126.36C219.735 126.36 218.626 126.829 217.645 127.768C216.663 128.664 215.81 129.709 215.085 130.904C214.359 132.099 213.783 133.165 213.357 134.104Z" fill="black"/>
<g style="mix-blend-mode:lighten" filter="url(#filter0_f_13_2)">
<ellipse cx="179.5" cy="105.5" rx="58.5" ry="68.5" fill="url(#paint0_linear_13_2)"/>
</g>
<g style="mix-blend-mode:lighten">
<ellipse cx="185" cy="109.5" rx="185" ry="109.5" fill="#B19F5F" fill-opacity="0.8"/>
</g>
<defs>
<filter id="filter0_f_13_2" x="117" y="33" width="125" height="145" filterUnits="userSpaceOnUse" color-interpolation-filters="sRGB">
<feFlood flood-opacity="0" result="BackgroundImageFix"/>
<feBlend mode="normal" in="SourceGraphic" in2="BackgroundImageFix" result="shape"/>
<feGaussianBlur stdDeviation="2" result="effect1_foregroundBlur_13_2"/>
</filter>
<linearGradient id="paint0_linear_13_2" x1="179.5" y1="37" x2="179.5" y2="174" gradientUnits="userSpaceOnUse">
<stop stop-color="#91CF0D"/>
<stop offset="0.109375" stop-color="#647F2A" stop-opacity="0.723958"/>
<stop offset="0.30625" stop-color="#94DA00" stop-opacity="0.640132"/>
<stop offset="1" stop-color="#5E8114" stop-opacity="0"/>
</linearGradient>
</defs>
</svg>
