<svg version="1.1" id="Layer_1" xmlns="http://www.w3.org/2000/svg" xmlns:xlink="http://www.w3.org/1999/xlink" x="0px" y="0px"
	 width="100%" viewBox="0 180 1440 828" enable-background="new 0 0 1440 828" xml:space="preserve">
<path fill="#FAE6AA" opacity="1.000000" stroke="none" 
	d="
M896.000000,829.000000 
	C864.305298,829.000000 832.610596,829.000000 800.795898,828.643921 
	C799.668335,827.859314 798.689514,827.155518 797.648376,827.046448 
	C790.480103,826.295898 783.268066,825.901917 776.127869,824.956543 
	C759.515747,822.757202 742.793640,821.036072 726.375305,817.804321 
	C698.038696,812.226318 670.057495,805.028687 642.806458,795.324097 
	C617.187500,786.200684 591.853699,776.233459 566.039185,767.713989 
	C538.087463,758.489075 509.324066,752.255310 480.170990,748.012146 
	C463.577545,745.597046 446.992737,743.074158 430.344971,741.097046 
	C418.130768,739.646484 405.833588,738.785522 393.549957,738.056885 
	C378.385620,737.157288 363.198456,736.132690 348.018616,736.090698 
	C274.553772,735.887573 201.088013,736.041260 127.622726,735.949524 
	C115.370316,735.934204 103.118637,735.331482 90.866615,735.000000 
	C90.367226,734.986450 89.865150,734.999268 89.368942,734.951660 
	C75.673943,733.638367 61.966133,732.442078 48.289967,730.954895 
	C39.872276,730.039673 31.494503,728.736572 23.114645,727.500183 
	C15.731678,726.410828 8.370689,725.172546 0.999999,724.000000 
	C1.000000,483.036591 1.000000,242.073196 1.000000,1.054902 
	C480.890503,1.054902 960.781006,1.054902 1441.000000,1.054902 
	C1441.000000,193.027908 1441.000000,385.056000 1440.745239,577.225586 
	C1422.321655,592.409180 1404.419800,607.789917 1385.902954,622.390869 
	C1369.829834,635.064941 1353.366333,647.299255 1336.517822,658.919556 
	C1317.716553,671.886658 1298.517944,684.318359 1279.063477,696.286072 
	C1260.186646,707.898315 1241.157349,719.383606 1221.483521,729.547668 
	C1197.942017,741.710083 1173.841187,752.850525 1149.625244,763.631287 
	C1121.607788,776.104614 1092.738403,786.387512 1063.377075,795.351501 
	C1028.530151,805.990173 993.324829,814.975159 957.204834,819.962830 
	C937.804260,822.641785 918.311523,824.650513 898.873718,827.069458 
	C897.851562,827.196716 896.955017,828.333252 896.000000,829.000000 
z"/>


</svg>